<svg width="75" height="75" viewBox="0 0 75 75" fill="none" xmlns="http://www.w3.org/2000/svg">
<path d="M73.7049 56.934C73.6473 56.7915 73.5805 56.6529 73.5049 56.519C73.0942 55.8746 72.83 55.1479 72.731 54.3902C72.632 53.6325 72.7006 52.8623 72.9319 52.134C73.2477 51.3388 73.3818 50.4831 73.3244 49.6294C73.2669 48.7758 73.0194 47.9457 72.5999 47.2L64.0099 31.238C63.6929 30.5718 63.2289 29.9861 62.6528 29.5252C62.0766 29.0643 61.4035 28.7401 60.6839 28.577C59.2931 28.2438 57.8289 28.4213 56.5579 29.077C55.5177 29.6688 54.6997 30.5848 54.2289 31.685C53.5464 31.4812 52.8297 31.4171 52.1218 31.4965C51.414 31.5758 50.7293 31.7971 50.1089 32.147C49.1182 32.716 48.318 33.5653 47.8089 34.588C47.2585 34.3853 46.6706 34.3045 46.0859 34.351V5.00002C46.1014 4.33918 45.9826 3.68208 45.7368 3.06846C45.491 2.45484 45.1233 1.89746 44.6559 1.43005C44.1885 0.96264 43.6311 0.594911 43.0175 0.349112C42.4038 0.103313 41.7467 -0.015446 41.0859 1.94066e-05H4.9999C4.33902 -0.0155887 3.68185 0.103073 3.06817 0.348821C2.45448 0.59457 1.89705 0.962294 1.42961 1.42973C0.962172 1.89717 0.594448 2.45461 0.348699 3.06829C0.102951 3.68197 -0.0157108 4.33914 -0.000102664 5.00002V69.5C-0.0150295 70.1604 0.104144 70.817 0.35021 71.4301C0.596277 72.0431 0.964124 72.5999 1.43151 73.0667C1.89889 73.5335 2.4561 73.9007 3.06944 74.146C3.68278 74.3914 4.3395 74.5097 4.9999 74.494H41.2399C42.5639 74.4924 43.8332 73.9658 44.7694 73.0296C45.7057 72.0934 46.2323 70.824 46.2339 69.5V67.221C46.973 67.8661 47.5623 68.6646 47.9609 69.561C48.1929 69.995 48.4379 70.452 48.7329 70.912C49.1577 71.6922 49.7352 72.3788 50.431 72.931C51.1268 73.4831 51.9267 73.8896 52.7829 74.126C53.6029 74.3608 54.4618 74.428 55.3083 74.3235C56.1548 74.2191 56.9716 73.9451 57.7099 73.518L71.0679 66C72.6142 65.1431 73.7592 63.7098 74.2533 62.0124C74.7475 60.3149 74.5507 58.491 73.7059 56.938M42.3889 9.36702H3.8469V5.00002C3.83352 4.84515 3.85415 4.68922 3.90734 4.54316C3.96052 4.39709 4.04498 4.26441 4.1548 4.15439C4.26463 4.04438 4.39716 3.95969 4.54314 3.90625C4.68911 3.85281 4.845 3.83191 4.9999 3.84502H41.2399C41.3912 3.84541 41.5409 3.8756 41.6805 3.93386C41.8201 3.99211 41.9469 4.0773 42.0536 4.18455C42.1603 4.2918 42.2448 4.41902 42.3024 4.55894C42.3599 4.69886 42.3893 4.84874 42.3889 5.00002V9.36702ZM42.3889 22.09C40.5933 19.6042 37.9148 17.8994 34.9026 17.3251C31.8903 16.7509 28.7725 17.3508 26.1883 19.0018C23.6042 20.6528 21.7495 23.2297 21.0046 26.2044C20.2596 29.1791 20.6809 32.326 22.1819 35C22.3622 35.2881 22.6128 35.5254 22.9103 35.6897C23.2077 35.854 23.5421 35.9398 23.8819 35.939C24.2173 35.9613 24.5523 35.8893 24.8489 35.731C25.0751 35.6066 25.2742 35.4384 25.4349 35.2363C25.5955 35.0342 25.7144 34.8023 25.7846 34.5539C25.8549 34.3055 25.8751 34.0456 25.844 33.7893C25.813 33.533 25.7314 33.2855 25.6039 33.061C24.5626 31.1696 24.3014 28.9462 24.8761 26.8649C25.4507 24.7837 26.8157 23.0093 28.6799 21.92C30.548 20.8712 32.756 20.6072 34.8187 21.1859C36.8814 21.7645 38.63 23.1386 39.6799 25.006C39.8033 25.2313 39.9701 25.4298 40.1707 25.5902C40.3713 25.7506 40.6017 25.8696 40.8486 25.9404C41.0955 26.0112 41.354 26.0323 41.6091 26.0025C41.8642 25.9728 42.1109 25.8927 42.3349 25.767L42.3889 25.738V35.982L37.1229 26.308C36.4171 25.0361 35.2381 24.0939 33.8419 23.686C33.1523 23.4819 32.4287 23.419 31.7143 23.501C30.9999 23.5829 30.3093 23.8081 29.6839 24.163C28.4157 24.8654 27.4777 26.0417 27.0753 27.4344C26.6728 28.8271 26.8388 30.3225 27.5369 31.593L35.5139 46.569L34.6969 45.985C33.9958 45.5094 33.205 45.1822 32.3728 45.0233C31.5407 44.8644 30.6849 44.8772 29.8579 45.061C29.0646 45.2317 28.3145 45.5621 27.6531 46.0322C26.9917 46.5022 26.4329 47.102 26.0109 47.795C25.1304 49.2372 24.8457 50.9654 25.2169 52.6138C25.5881 54.2622 26.5862 55.7015 27.9999 56.627L33.4819 59.742H3.8469V13.214H42.3889V22.09ZM29.2759 49.59C29.4537 49.3081 29.6874 49.0657 29.9626 48.8777C30.2378 48.6897 30.5486 48.5601 30.8759 48.497C30.9948 48.4767 31.1152 48.4663 31.2359 48.466C31.7187 48.4698 32.187 48.631 32.5699 48.925L39.9889 54.025C40.3391 54.2227 40.7407 54.3101 41.1414 54.2761C41.542 54.242 41.9231 54.0879 42.2349 53.834C42.5701 53.5578 42.7962 53.1714 42.8727 52.7438C42.9493 52.3163 42.8714 51.8754 42.6529 51.5L30.9999 29.567C30.7947 29.1854 30.7409 28.7404 30.8491 28.3208C30.9573 27.9012 31.2197 27.5378 31.5839 27.303C31.97 27.1254 32.4059 27.0881 32.8165 27.1976C33.2272 27.3072 33.5866 27.5567 33.8329 27.903L41.6609 42.483C41.7689 42.702 42.0519 43.225 42.3609 43.807L41.8989 43.347L43.5159 46.047C43.6544 46.2889 43.8429 46.4985 44.0688 46.6618C44.2947 46.8251 44.5528 46.9383 44.8259 46.994C45.0669 47.0369 45.3143 47.0274 45.5514 46.9664C45.7884 46.9053 46.0096 46.794 46.1999 46.64C46.6041 46.3779 46.8919 45.9702 47.0037 45.5016C47.1154 45.033 47.0424 44.5393 46.7999 44.123C46.4189 43.436 46.1149 42.823 45.8279 42.257C45.5409 41.691 45.2649 41.13 44.9649 40.605C44.8095 40.2638 44.7567 39.8848 44.8128 39.5141C44.8689 39.1434 45.0315 38.797 45.2809 38.517C45.351 38.4911 45.415 38.4509 45.4689 38.399L45.5399 38.37C46.3199 38.037 46.9099 37.938 47.9589 39.57C48.2099 40.178 48.9929 41.614 49.4669 42.479C49.6359 42.787 49.7599 43.017 49.8159 43.124C50.0706 43.5775 50.4945 43.9117 50.9948 44.0536C51.4952 44.1955 52.0314 44.1335 52.4863 43.8813C52.9411 43.629 53.2776 43.2069 53.4222 42.7073C53.5668 42.2077 53.5077 41.6712 53.2579 41.215C51.9389 38.579 51.5449 37.878 51.4119 37.674C51.2148 37.2906 51.1687 36.8472 51.2825 36.4314C51.3964 36.0156 51.662 35.6576 52.0269 35.428C52.2205 35.3213 52.4334 35.2542 52.6532 35.2306C52.873 35.207 53.0952 35.2275 53.307 35.2908C53.5188 35.3541 53.7159 35.459 53.8867 35.5993C54.0575 35.7396 54.1987 35.9126 54.3019 36.108C54.3929 36.229 54.8229 37.001 55.2709 37.825L54.7969 37.349L56.4179 40.049C56.6796 40.5022 57.1012 40.8414 57.5999 41C57.8493 41.0759 58.1119 41.098 58.3705 41.065C58.6291 41.0319 58.8777 40.9443 59.0999 40.808C59.5492 40.5454 59.8838 40.1241 60.0379 39.627C60.1135 39.3815 60.1366 39.1228 60.1055 38.8678C60.0745 38.6128 59.9902 38.3672 59.8579 38.147L58.0179 34.621C57.8335 34.2294 57.7964 33.7845 57.9134 33.3678C58.0304 32.9511 58.2937 32.5904 58.6549 32.352C58.833 32.2425 59.034 32.1758 59.2422 32.1571C59.4504 32.1383 59.6601 32.1681 59.8549 32.244C60.2602 32.3729 60.6133 32.6289 60.8619 32.974L69.1499 49.09C69.3006 49.3422 69.3914 49.6256 69.4153 49.9185C69.4392 50.2113 69.3957 50.5057 69.2879 50.779C68.8491 51.997 68.6892 53.2979 68.8201 54.5859C68.9509 55.8739 69.3691 57.1161 70.0439 58.221C70.1179 58.357 70.1679 58.457 70.1849 58.438V58.545L70.2389 58.638C70.434 58.9746 70.5574 59.3478 70.6014 59.7343C70.6455 60.1208 70.6092 60.5122 70.4949 60.884C70.3988 61.2402 70.23 61.5725 69.999 61.8601C69.768 62.1477 69.4799 62.3843 69.1529 62.555L55.7829 70.087C55.4652 70.2704 55.1137 70.3876 54.7495 70.4314C54.3853 70.4752 54.016 70.4448 53.6639 70.342C53.3118 70.2392 52.9841 70.0662 52.7007 69.8333C52.4173 69.6004 52.184 69.3125 52.0149 68.987C51.8149 68.66 51.6369 68.302 51.4449 67.928C50.6607 66.1203 49.3732 64.5763 47.7359 63.48C47.4419 63.303 45.2619 62.048 42.4929 60.455C38.0659 57.911 31.9999 54.424 29.9369 53.2C29.6537 53.009 29.4114 52.7633 29.2244 52.4774C29.0373 52.1915 28.9092 51.8712 28.8475 51.5352C28.7859 51.1991 28.7919 50.8542 28.8653 50.5205C28.9387 50.1868 29.0779 49.8712 29.2749 49.592M3.8469 63.588H40.0589L42.3879 64.958V69.5C42.4003 69.6539 42.3791 69.8087 42.3257 69.9536C42.2724 70.0985 42.1883 70.23 42.0791 70.3392C41.9699 70.4484 41.8383 70.5326 41.6934 70.5859C41.5485 70.6392 41.3938 70.6604 41.2399 70.648H4.9999C4.84879 70.6484 4.69909 70.619 4.55935 70.5615C4.41961 70.5041 4.29257 70.4196 4.18549 70.313C4.07841 70.2064 3.99339 70.0797 3.9353 69.9402C3.8772 69.8007 3.84716 69.6511 3.8469 69.5V63.588ZM18.7369 67.345C18.7252 67.0894 18.767 66.8341 18.8595 66.5955C18.952 66.357 19.0933 66.1403 19.2742 65.9593C19.4551 65.7784 19.6718 65.6371 19.9104 65.5446C20.149 65.4521 20.4043 65.4104 20.6599 65.422H25.4209C25.931 65.422 26.4203 65.6247 26.781 65.9854C27.1417 66.3461 27.3444 66.8354 27.3444 67.3455C27.3444 67.8557 27.1417 68.3449 26.781 68.7056C26.4203 69.0664 25.931 69.269 25.4209 69.269H20.6599C20.4043 69.2807 20.149 69.2389 19.9104 69.1464C19.6718 69.0539 19.4551 68.9127 19.2742 68.7317C19.0933 68.5508 18.952 68.3341 18.8595 68.0955C18.767 67.8569 18.7252 67.6007 18.7369 67.345Z" fill="white"/>
</svg>
