<svg width="78" height="78" viewBox="0 0 78 78" fill="none" xmlns="http://www.w3.org/2000/svg">
<path d="M76.969 12.5077L65.032 0.555722C64.8577 0.379689 64.6503 0.239991 64.4216 0.144721C64.193 0.0494523 63.9477 0.000507112 63.7 0.000722168C63.4511 -0.000593667 63.2045 0.0476228 62.9744 0.142563C62.7444 0.237504 62.5355 0.37727 62.36 0.553722L56.26 6.64172C53.678 6.15672 48.04 5.20072 43.413 8.60072L38.762 11.7187L34.12 8.60672C29.483 5.20072 23.846 6.15872 21.26 6.64172L15.162 0.553722C14.8074 0.199176 14.3265 0 13.825 0C13.3236 0 12.8426 0.199176 12.488 0.553722L0.552011 12.5077C0.376265 12.6829 0.23699 12.8911 0.142241 13.1205C0.0474922 13.3498 -0.000849743 13.5956 1.1303e-05 13.8437C0.00106587 14.3445 0.199807 14.8247 0.553011 15.1797L6.82401 21.4377C6.91501 22.8297 7.58001 30.1757 11.593 34.1667L20.103 42.6667L22.637 55.4737C23.553 61.4487 28.491 64.9497 30.78 66.5137L30.788 75.6777C30.7888 76.1788 30.9884 76.6591 31.3429 77.0133C31.6974 77.3674 32.1779 77.5665 32.679 77.5667H49.272C49.7731 77.5667 50.2537 77.3677 50.6081 77.0133C50.9624 76.659 51.1615 76.1784 51.1615 75.6772C51.1615 75.1761 50.9624 74.6955 50.6081 74.3411C50.2537 73.9868 49.7731 73.7877 49.272 73.7877H34.572L34.566 67.4177H48.635L48.641 73.7797H48.359C48.1074 73.7739 47.8571 73.8185 47.6229 73.9108C47.3887 74.0031 47.1753 74.1413 46.9953 74.3172C46.8153 74.4932 46.6722 74.7033 46.5745 74.9353C46.4769 75.1673 46.4266 75.4165 46.4266 75.6682C46.4266 75.92 46.4769 76.1691 46.5745 76.4011C46.6722 76.6331 46.8153 76.8433 46.9953 77.0192C47.1753 77.1952 47.3887 77.3333 47.6229 77.4256C47.8571 77.5179 48.1074 77.5625 48.359 77.5567H50.529C50.7779 77.5571 51.0243 77.5082 51.2542 77.4128C51.484 77.3173 51.6926 77.1773 51.868 77.0007C52.2202 76.6451 52.4185 76.1652 52.42 75.6647L52.412 66.2647C53.368 65.1797 58.376 59.2117 58.359 53.2277L58.351 41.7007C58.766 41.3007 60.268 39.8117 65.927 34.1717C69.902 30.2147 70.589 23.1717 70.699 21.4397L76.968 15.1817C77.3212 14.8267 77.52 14.3465 77.521 13.8457C77.5217 13.5976 77.4732 13.3519 77.3785 13.1226C77.2837 12.8933 77.1446 12.685 76.969 12.5097M17.949 8.67672L8.67601 17.9497L4.56101 13.8427L13.828 4.56372L17.949 8.67672ZM39.264 18.0157C38.5204 18.3246 37.8867 18.8499 37.4454 19.5234C37.004 20.1969 36.7753 20.9876 36.789 21.7927C36.1726 21.5733 35.5233 21.461 34.869 21.4607C33.5824 21.4369 32.3391 21.9249 31.4122 22.8175C30.4853 23.7101 29.9507 24.9342 29.926 26.2207L29.759 38.5347C29.3061 37.7442 28.6516 37.0879 27.8623 36.6329C27.073 36.1779 26.1771 35.9404 25.266 35.9447C24.4192 35.9459 23.5839 36.1414 22.8245 36.5162C22.0652 36.8911 21.402 37.4352 20.886 38.1067L14.26 31.4927C11.74 28.9847 10.776 24.0407 10.59 21.3817L21.535 10.4357L21.7 10.4007C23.724 10.0197 28.464 9.12672 31.9 11.6657L40.86 17.6657C40.3107 17.6881 39.7695 17.8051 39.26 18.0117M25.047 39.7397C25.3826 39.6894 25.7251 39.7613 26.0121 39.9422C26.2992 40.1232 26.5117 40.4012 26.611 40.7257C26.611 40.7377 26.623 40.7617 29.731 49.3817C29.8816 49.7979 30.1734 50.1481 30.5557 50.3713C30.9379 50.5945 31.3863 50.6766 31.8228 50.6032C32.2593 50.5298 32.6562 50.3056 32.9444 49.9696C33.2326 49.6337 33.3938 49.2073 33.4 48.7647L33.707 26.2647C33.7425 25.9849 33.878 25.7273 34.0884 25.5394C34.2988 25.3515 34.57 25.246 34.852 25.2422C35.1341 25.2384 35.408 25.3367 35.6234 25.5189C35.8387 25.7011 35.981 25.9549 36.024 26.2337L36.036 43.2477C36.0372 43.4979 36.0879 43.7453 36.1852 43.9758C36.2826 44.2063 36.4246 44.4152 36.6031 44.5904C36.7816 44.7657 36.9931 44.9038 37.2253 44.9969C37.4575 45.09 37.7059 45.1362 37.956 45.1327C38.2077 45.138 38.4579 45.0933 38.6922 45.001C38.9264 44.9088 39.14 44.771 39.3205 44.5955C39.501 44.42 39.6448 44.2104 39.7436 43.9789C39.8424 43.7473 39.8942 43.4985 39.896 43.2467L39.881 22.9067C39.881 22.2947 40.281 21.4467 41.04 21.4467C41.3843 21.4911 41.6978 21.6676 41.9143 21.9389C42.1308 22.2103 42.2332 22.5552 42.2 22.9007L42.215 43.2407C42.2145 43.4874 42.2633 43.7317 42.3587 43.9593C42.454 44.1868 42.5938 44.393 42.77 44.5657C42.952 44.7476 43.1688 44.8909 43.4075 44.9871C43.6461 45.0834 43.9017 45.1305 44.159 45.1257C44.4089 45.1278 44.6567 45.0806 44.8883 44.9869C45.1198 44.8931 45.3307 44.7545 45.5086 44.5791C45.6866 44.4038 45.8282 44.195 45.9254 43.9648C46.0226 43.7347 46.0734 43.4876 46.075 43.2377L46.064 26.2247C46.0878 25.9487 46.2154 25.692 46.421 25.5064C46.6266 25.3208 46.895 25.2202 47.172 25.2247C47.3413 25.2136 47.511 25.2386 47.6699 25.2979C47.8288 25.3572 47.9734 25.4495 48.094 25.5687C48.184 25.6513 48.256 25.7516 48.3055 25.8633C48.3551 25.9749 48.3811 26.0956 48.382 26.2177L48.393 43.2317C48.397 43.7255 48.5925 44.1984 48.9384 44.5508C49.2842 44.9032 49.7534 45.1075 50.247 45.1207C50.7789 45.1116 51.2862 44.8954 51.661 44.5179C52.0359 44.1405 52.2486 43.6316 52.254 43.0997L52.245 29.0677C52.2462 28.9535 52.2701 28.8407 52.3153 28.7359C52.3604 28.631 52.4259 28.5361 52.508 28.4567C52.749 28.2285 53.0681 28.1012 53.4 28.1007C53.6813 28.0833 53.9586 28.1745 54.1747 28.3555C54.3907 28.5366 54.529 28.7937 54.561 29.0737L54.58 53.2297C54.589 57.7647 50.468 62.7537 49.709 63.6357H33.273C32.452 63.0557 26.998 59.0577 26.367 54.8557L23.642 41.1007C23.614 40.4107 24.361 39.8287 25.048 39.7357M58.348 36.3937L58.342 29.0687C58.338 28.2921 58.1413 27.5286 57.7695 26.8467C57.3978 26.1648 56.8626 25.5859 56.212 25.1617C55.5743 24.7464 54.8526 24.4772 54.0987 24.3734C53.3447 24.2697 52.5772 24.334 51.851 24.5617C51.4467 23.5629 50.7292 22.7223 49.8063 22.1662C48.8834 21.6101 47.805 21.3685 46.733 21.4777C47.0655 20.5452 47.1081 19.5339 46.8552 18.5767C46.6023 17.6196 46.0657 16.7613 45.316 16.1147C45.2684 16.0733 45.2179 16.0352 45.165 16.0007L42.157 13.9847C45.593 11.6847 45.607 11.6727 45.615 11.6657C49.059 9.12472 53.8 10.0207 55.822 10.4007L55.986 10.4337L66.931 21.3797C66.745 24.0407 65.779 28.9847 63.258 31.4957L58.348 36.3937ZM72.96 13.8427L68.845 17.9497L59.571 8.67672L63.694 4.56372L72.96 13.8427Z" fill="white"/>
</svg>
