<svg width="60" height="74" viewBox="0 0 60 74" fill="none" xmlns="http://www.w3.org/2000/svg">
<g clip-path="url(#clip0_29_293)">
<path d="M57.71 26.968C57.2731 26.0669 56.7771 25.1956 56.225 24.36C55.898 23.845 55.569 23.328 55.281 22.789C54.2975 20.9681 54.0388 18.8427 54.557 16.839C55.1748 15.0081 56.0841 13.289 57.25 11.748L58.082 10.489C58.5367 9.7825 58.7378 8.94238 58.6522 8.10654C58.5666 7.27069 58.1995 6.48876 57.611 5.88904C54.6421 3.03529 50.9001 1.11677 46.8499 0.371852C42.7998 -0.37307 38.62 0.0884377 34.83 1.69904C32.776 2.69214 30.8172 3.87105 28.978 5.22104C27.7227 6.12207 26.4209 6.95655 25.078 7.72104C21.9638 9.34629 18.4999 10.1867 14.9871 10.1693C11.4743 10.1518 8.01894 9.27711 4.921 7.62104V2.45904C4.921 1.80647 4.66177 1.18063 4.20034 0.719199C3.7389 0.257766 3.11307 -0.00146484 2.4605 -0.00146484C1.80793 -0.00146484 1.1821 0.257766 0.720664 0.719199C0.259231 1.18063 0 1.80647 0 2.45904L0 71.31C0 71.9622 0.259072 72.5877 0.720224 73.0488C1.18138 73.51 1.80683 73.769 2.459 73.769C3.11117 73.769 3.73662 73.51 4.19778 73.0488C4.65893 72.5877 4.918 71.9622 4.918 71.31V42.227C8.14328 43.5563 11.5975 44.2415 15.086 44.244C19.3894 44.2702 23.6315 43.2237 27.429 41.199C28.9256 40.3522 30.3766 39.4272 31.776 38.428C33.3725 37.2508 35.0713 36.219 36.852 35.345C39.4769 34.254 42.3427 33.8728 45.1615 34.2399C47.9804 34.6069 50.653 35.7092 52.911 37.436C53.4735 37.8847 54.1527 38.1628 54.8683 38.2376C55.5839 38.3124 56.3059 38.1807 56.949 37.858C57.5828 37.5483 58.1145 37.0635 58.4812 36.4609C58.8479 35.8583 59.0342 35.1632 59.018 34.458C59.1206 31.896 58.6746 29.3417 57.71 26.966M34.83 30.857C32.7766 31.8486 30.8185 33.0262 28.98 34.375C27.7256 35.2774 26.4237 36.1119 25.08 36.875C21.9654 38.5003 18.5012 39.3407 14.9881 39.3233C11.475 39.3058 8.0193 38.4311 4.921 36.775V13.065C8.52103 14.5456 12.4012 15.2211 16.2898 15.0442C20.1784 14.8673 23.9813 13.8423 27.432 12.041C28.9276 11.1942 30.3776 10.2692 31.776 9.27003C33.3725 8.09094 35.0724 7.05873 36.855 6.18604C39.5728 5.03451 42.5563 4.65725 45.4752 5.096C48.3941 5.53475 51.1348 6.7724 53.394 8.67204L53.165 9.01904C51.6792 11.0021 50.5422 13.2239 49.803 15.589C48.9669 18.7912 49.3746 22.1913 50.944 25.105C51.288 25.749 51.68 26.371 52.071 26.991C52.507 27.6465 52.9004 28.3292 53.249 29.035C53.6829 30.0431 53.9371 31.1193 54 32.215C51.1427 30.4812 47.9131 29.4536 44.5792 29.2175C41.2454 28.9813 37.9032 29.5433 34.83 30.857Z" fill="white"/>
</g>
<defs>
<clipPath id="clip0_29_293">
<rect width="59.019" height="73.769" fill="white"/>
</clipPath>
</defs>
</svg>
