<svg width="79" height="79" viewBox="0 0 79 79" fill="none" xmlns="http://www.w3.org/2000/svg">
<path d="M39.5 34.965H43.344C43.9471 34.9525 44.5213 34.7041 44.9435 34.2731C45.3656 33.8421 45.602 33.2628 45.602 32.6595C45.602 32.0563 45.3656 31.477 44.9435 31.046C44.5213 30.615 43.9471 30.3666 43.344 30.354H39.5C38.8969 30.3666 38.3227 30.615 37.9005 31.046C37.4784 31.477 37.242 32.0563 37.242 32.6595C37.242 33.2628 37.4784 33.8421 37.9005 34.2731C38.3227 34.7041 38.8969 34.9525 39.5 34.965ZM29.664 30.354H25.819C25.2159 30.3666 24.6417 30.615 24.2195 31.046C23.7974 31.477 23.561 32.0563 23.561 32.6595C23.561 33.2628 23.7974 33.8421 24.2195 34.2731C24.6417 34.7041 25.2159 34.9525 25.819 34.965H29.661C29.9678 34.9714 30.2728 34.9165 30.5581 34.8035C30.8434 34.6905 31.1033 34.5217 31.3225 34.307C31.5418 34.0923 31.716 33.836 31.8349 33.5531C31.9538 33.2702 32.015 32.9664 32.015 32.6595C32.015 32.3527 31.9538 32.0489 31.8349 31.766C31.716 31.4831 31.5418 31.2268 31.3225 31.0121C31.1033 30.7974 30.8434 30.6286 30.5581 30.5156C30.2728 30.4026 29.9678 30.3477 29.661 30.354M53.175 34.965H57.019C57.6221 34.9525 58.1963 34.7041 58.6185 34.2731C59.0406 33.8421 59.277 33.2628 59.277 32.6595C59.277 32.0563 59.0406 31.477 58.6185 31.046C58.1963 30.615 57.6221 30.3666 57.019 30.354H53.175C52.5719 30.3666 51.9977 30.615 51.5755 31.046C51.1534 31.477 50.917 32.0563 50.917 32.6595C50.917 33.2628 51.1534 33.8421 51.5755 34.2731C51.9977 34.7041 52.5719 34.9525 53.175 34.965ZM15.983 40.729H12.141C11.5297 40.729 10.9434 40.9719 10.5111 41.4042C10.0788 41.8364 9.836 42.4227 9.836 43.034C9.836 43.6454 10.0788 44.2317 10.5111 44.6639C10.9434 45.0962 11.5297 45.3391 12.141 45.3391H15.983C16.5943 45.3391 17.1806 45.0962 17.6129 44.6639C18.0452 44.2317 18.288 43.6454 18.288 43.034C18.288 42.4227 18.0452 41.8364 17.6129 41.4042C17.1806 40.9719 16.5943 40.729 15.983 40.729ZM29.661 40.729H25.819C25.2077 40.729 24.6214 40.9719 24.1891 41.4042C23.7568 41.8364 23.514 42.4227 23.514 43.034C23.514 43.6454 23.7568 44.2317 24.1891 44.6639C24.6214 45.0962 25.2077 45.3391 25.819 45.3391H29.661C30.2723 45.3391 30.8586 45.0962 31.2909 44.6639C31.7232 44.2317 31.966 43.6454 31.966 43.034C31.966 42.4227 31.7232 41.8364 31.2909 41.4042C30.8586 40.9719 30.2723 40.729 29.661 40.729ZM45.646 43.029C45.6447 42.4195 45.4019 41.8352 44.9709 41.4042C44.5398 40.9731 43.9556 40.7304 43.346 40.729H39.5C38.8887 40.729 38.3024 40.9719 37.8701 41.4042C37.4378 41.8364 37.195 42.4227 37.195 43.034C37.195 43.6454 37.4378 44.2317 37.8701 44.6639C38.3024 45.0962 38.8887 45.3391 39.5 45.3391H43.344C43.9536 45.3377 44.5378 45.095 44.9689 44.6639C45.3999 44.2329 45.6427 43.6486 45.644 43.0391M15.983 51.1H12.141C11.5297 51.1 10.9434 51.3429 10.5111 51.7752C10.0788 52.2074 9.836 52.7937 9.836 53.405C9.836 54.0164 10.0788 54.6027 10.5111 55.0349C10.9434 55.4672 11.5297 55.71 12.141 55.71H15.983C16.5943 55.71 17.1806 55.4672 17.6129 55.0349C18.0452 54.6027 18.288 54.0164 18.288 53.405C18.288 52.7937 18.0452 52.2074 17.6129 51.7752C17.1806 51.3429 16.5943 51.1 15.983 51.1ZM29.661 51.1H25.819C25.2077 51.1 24.6214 51.3429 24.1891 51.7752C23.7568 52.2074 23.514 52.7937 23.514 53.405C23.514 54.0164 23.7568 54.6027 24.1891 55.0349C24.6214 55.4672 25.2077 55.71 25.819 55.71H29.661C30.2723 55.71 30.8586 55.4672 31.2909 55.0349C31.7232 54.6027 31.966 54.0164 31.966 53.405C31.966 52.7937 31.7232 52.2074 31.2909 51.7752C30.8586 51.3429 30.2723 51.1 29.661 51.1ZM69.161 42.889V13.063C69.1584 10.8221 68.2669 8.67367 66.6822 7.08915C65.0975 5.50464 62.949 4.61343 60.708 4.61105H56.249V2.31105C56.249 1.69973 56.0061 1.11344 55.5739 0.681168C55.1416 0.248897 54.5553 0.00604948 53.944 0.00604948C53.3327 0.00604948 52.7464 0.248897 52.3141 0.681168C51.8818 1.11344 51.639 1.69973 51.639 2.31105V4.61105H43.339V2.31105C43.3454 2.00425 43.2905 1.69925 43.1775 1.41394C43.0645 1.12863 42.8957 0.868746 42.681 0.649509C42.4663 0.430272 42.2099 0.256096 41.927 0.137188C41.6442 0.0182799 41.3404 -0.0429687 41.0335 -0.0429688C40.7266 -0.0429687 40.4228 0.0182799 40.14 0.137188C39.8571 0.256096 39.6007 0.430272 39.386 0.649509C39.1713 0.868746 39.0025 1.12863 38.8895 1.41394C38.7765 1.69925 38.7216 2.00425 38.728 2.31105V4.61105H30.428V2.31105C30.4344 2.00425 30.3795 1.69925 30.2665 1.41394C30.1535 1.12863 29.9847 0.868746 29.77 0.649509C29.5553 0.430272 29.2989 0.256096 29.016 0.137188C28.7332 0.0182799 28.4294 -0.0429688 28.1225 -0.0429688C27.8156 -0.0429688 27.5118 0.0182799 27.229 0.137188C26.9461 0.256096 26.6897 0.430272 26.475 0.649509C26.2603 0.868746 26.0915 1.12863 25.9785 1.41394C25.8655 1.69925 25.8106 2.00425 25.817 2.31105V4.61105H17.517V2.31105C17.517 1.69973 17.2742 1.11344 16.8419 0.681168C16.4096 0.248897 15.8233 0.00604948 15.212 0.00604948C14.6007 0.00604948 14.0144 0.248897 13.5821 0.681168C13.1498 1.11344 12.907 1.69973 12.907 2.31105V4.61105H8.453C6.21195 4.61317 4.06328 5.50429 2.47852 7.08886C0.893761 8.67343 0.00238282 10.822 0 13.063V59.1711C0.00238135 61.0046 0.731794 62.7623 2.02828 64.0588C3.32477 65.3553 5.08249 66.0847 6.916 66.087H41.437C42.4974 68.9818 44.2389 71.5789 46.5144 73.6589C48.7899 75.7389 51.5326 77.2407 54.5107 78.0375C57.4889 78.8342 60.6151 78.9026 63.6252 78.2367C66.6353 77.5708 69.441 76.1903 71.8052 74.2117C74.1694 72.2332 76.0227 69.7147 77.2086 66.869C78.3945 64.0233 78.8781 60.934 78.6186 57.862C78.3591 54.7901 77.3641 51.8257 75.7176 49.2193C74.0712 46.6129 71.8216 44.441 69.159 42.8871M4.61 13.063C4.61132 12.0443 5.01687 11.0678 5.73759 10.3478C6.4583 9.62784 7.43528 9.22331 8.454 9.22305H12.91V11.523C12.91 12.1344 13.1528 12.7207 13.5851 13.1529C14.0174 13.5852 14.6037 13.828 15.215 13.828C15.8263 13.828 16.4126 13.5852 16.8449 13.1529C17.2772 12.7207 17.52 12.1344 17.52 11.523V9.22305H25.82V11.523C25.8326 12.1262 26.081 12.7004 26.512 13.1225C26.943 13.5446 27.5222 13.781 28.1255 13.781C28.7288 13.781 29.308 13.5446 29.739 13.1225C30.17 12.7004 30.4184 12.1262 30.431 11.523V9.22305H38.731V11.523C38.7436 12.1262 38.992 12.7004 39.423 13.1225C39.854 13.5446 40.4332 13.781 41.0365 13.781C41.6398 13.781 42.219 13.5446 42.65 13.1225C43.081 12.7004 43.3294 12.1262 43.342 11.523V9.22305H51.642V11.523C51.642 12.1344 51.8848 12.7207 52.3171 13.1529C52.7494 13.5852 53.3357 13.828 53.947 13.828C54.5583 13.828 55.1446 13.5852 55.5769 13.1529C56.0092 12.7207 56.252 12.1344 56.252 11.523V9.22305H60.709C61.7274 9.22384 62.7038 9.6286 63.4241 10.3485C64.1444 11.0684 64.5497 12.0447 64.551 13.063V19.9811H4.61V13.063ZM6.916 61.4761C6.30552 61.4755 5.72009 61.2333 5.28776 60.8022C4.85542 60.3712 4.61138 59.7865 4.609 59.176V24.59H64.548V40.9481C61.6974 40.1679 58.7053 40.056 55.8044 40.621C52.9035 41.186 50.172 42.4127 47.8226 44.2056C45.4731 45.9985 43.569 48.3093 42.2584 50.9582C40.9478 53.6071 40.2659 56.5226 40.266 59.4781C40.265 60.146 40.2983 60.8135 40.366 61.4781L6.916 61.4761ZM59.477 74.076C56.5894 74.076 53.7666 73.2198 51.3657 71.6155C48.9647 70.0112 47.0934 67.731 45.9884 65.0632C44.8833 62.3954 44.5942 59.4599 45.1575 56.6277C45.7209 53.7956 47.1114 51.1941 49.1532 49.1523C51.1951 47.1104 53.7966 45.7199 56.6287 45.1566C59.4608 44.5932 62.3964 44.8824 65.0642 45.9874C67.732 47.0924 70.0122 48.9638 71.6165 51.3647C73.2207 53.7657 74.077 56.5884 74.077 59.4761C74.0722 63.3467 72.5325 67.0575 69.7955 69.7945C67.0585 72.5315 63.3477 74.0713 59.477 74.076ZM67.161 57.17H61.782V51.794C61.7694 51.1909 61.521 50.6167 61.09 50.1946C60.659 49.7725 60.0798 49.5361 59.4765 49.5361C58.8732 49.5361 58.294 49.7725 57.863 50.1946C57.432 50.6167 57.1836 51.1909 57.171 51.794V59.4781C57.1709 59.781 57.2305 60.0811 57.3463 60.3611C57.4622 60.641 57.6322 60.8954 57.8464 61.1096C58.0607 61.3239 58.315 61.4938 58.595 61.6097C58.875 61.7256 59.175 61.7852 59.478 61.785H67.162C67.7651 61.7725 68.3393 61.5241 68.7615 61.0931C69.1836 60.6621 69.42 60.0828 69.42 59.4795C69.42 58.8763 69.1836 58.297 68.7615 57.866C68.3393 57.435 67.7651 57.1866 67.162 57.174" fill="white"/>
</svg>
