<svg width="71" height="77" viewBox="0 0 71 77" fill="none" xmlns="http://www.w3.org/2000/svg">
<path d="M64.8719 28.2275C63.8525 28.2294 62.8554 28.5263 62.001 29.0824C61.1466 29.6386 60.4714 30.4301 60.0569 31.3615H51.1349C50.6322 28.7189 49.2242 26.3342 47.1533 24.6175C45.0823 22.9008 42.4779 21.9595 39.7879 21.9555H30.3809C27.3172 21.9587 24.3799 23.1771 22.2134 25.3433C20.047 27.5096 18.8284 30.4468 18.8249 33.5105V37.6335H10.1129C9.62034 36.5274 8.76291 35.624 7.68405 35.0744C6.60518 34.5247 5.37031 34.3622 4.18597 34.614C3.00164 34.8658 1.93968 35.5166 1.17772 36.4576C0.415753 37.3986 0 38.5727 0 39.7835C0 40.9943 0.415753 42.1684 1.17772 43.1094C1.93968 44.0504 3.00164 44.7012 4.18597 44.953C5.37031 45.2047 6.60518 45.0422 7.68405 44.4926C8.76291 43.943 9.62034 43.0396 10.1129 41.9335H18.8229V47.2545C18.8191 48.2371 19.0909 49.2011 19.6074 50.037C20.1239 50.8729 20.8644 51.5473 21.7449 51.9835L24.5519 53.3835C24.7159 53.4646 24.8538 53.59 24.95 53.7456C25.0461 53.9012 25.0967 54.0806 25.0959 54.2635V62.7195H16.3859C15.8934 61.614 15.0362 60.7111 13.9577 60.1619C12.8793 59.6126 11.6449 59.4503 10.4611 59.7021C9.27736 59.9539 8.21591 60.6045 7.45432 61.5451C6.69273 62.4857 6.27719 63.6592 6.27719 64.8695C6.27719 66.0798 6.69273 67.2533 7.45432 68.1939C8.21591 69.1345 9.27736 69.7851 10.4611 70.0369C11.6449 70.2887 12.8793 70.1264 13.9577 69.5771C15.0362 69.0279 15.8934 68.125 16.3859 67.0195H25.0979V71.1405C25.0992 72.5414 25.6562 73.8846 26.6466 74.8754C27.637 75.8662 28.98 76.4236 30.3809 76.4255H39.7889C41.1898 76.4236 42.5328 75.8662 43.5232 74.8754C44.5136 73.8846 45.0706 72.5414 45.0719 71.1405V57.6055H53.7839C54.2765 58.7116 55.1339 59.615 56.2128 60.1646C57.2916 60.7142 58.5265 60.8767 59.7108 60.625C60.8952 60.3732 61.9571 59.7224 62.7191 58.7814C63.4811 57.8404 63.8968 56.6663 63.8968 55.4555C63.8968 54.2447 63.4811 53.0706 62.7191 52.1296C61.9571 51.1886 60.8952 50.5378 59.7108 50.286C58.5265 50.0342 57.2916 50.1968 56.2128 50.7464C55.1339 51.296 54.2765 52.1994 53.7839 53.3055H45.7559L48.4229 51.9745C49.303 51.5378 50.0431 50.8634 50.5594 50.0275C51.0757 49.1917 51.3474 48.2279 51.3439 47.2455V35.6585H60.0539C60.4412 36.5262 61.0555 37.2734 61.8321 37.8211C62.6086 38.3689 63.5185 38.6969 64.466 38.7706C65.4134 38.8443 66.3631 38.6609 67.215 38.2399C68.0669 37.8188 68.7893 37.1757 69.3062 36.3782C69.823 35.5808 70.1151 34.6587 70.1516 33.7091C70.188 32.7596 69.9676 31.8177 69.5134 30.983C69.0592 30.1483 68.3882 29.4516 67.5711 28.9665C66.7541 28.4813 65.8212 28.2257 64.8709 28.2265M65.8579 33.5095C65.8577 33.7044 65.7997 33.8949 65.6913 34.0569C65.5829 34.2189 65.4289 34.3451 65.2488 34.4196C65.0686 34.4941 64.8705 34.5136 64.6793 34.4755C64.4881 34.4374 64.3125 34.3435 64.1747 34.2057C64.0369 34.0679 63.943 33.8923 63.9049 33.7011C63.8668 33.5099 63.8863 33.3118 63.9608 33.1316C64.0353 32.9515 64.1615 32.7975 64.3235 32.6891C64.4855 32.5807 64.676 32.5227 64.8709 32.5225C65.1327 32.5225 65.3837 32.6265 65.5688 32.8116C65.7539 32.9967 65.8579 33.2477 65.8579 33.5095ZM36.6529 53.3055C36.0827 53.3055 35.5358 53.532 35.1326 53.9352C34.7294 54.3384 34.5029 54.8853 34.5029 55.4555C34.5029 56.0257 34.7294 56.5726 35.1326 56.9758C35.5358 57.379 36.0827 57.6055 36.6529 57.6055H40.7739V71.1365C40.7739 71.3981 40.6701 71.649 40.4852 71.8341C40.3003 72.0191 40.0495 72.1232 39.7879 72.1235H30.3809C30.1193 72.1232 29.8685 72.0191 29.6836 71.8341C29.4988 71.649 29.3949 71.3981 29.3949 71.1365V67.0155H33.5129C34.0831 67.0155 34.63 66.789 35.0332 66.3858C35.4364 65.9826 35.6629 65.4357 35.6629 64.8655C35.6629 64.2953 35.4364 63.7484 35.0332 63.3452C34.63 62.942 34.0831 62.7155 33.5129 62.7155H29.3949V54.2605C29.3977 53.2785 29.1256 52.3153 28.6094 51.4799C28.0932 50.6445 27.3534 49.9703 26.4739 49.5335L23.6669 48.1335C23.5032 48.0523 23.3656 47.9268 23.2697 47.7712C23.1739 47.6156 23.1237 47.4362 23.1249 47.2535V41.9295H27.2459C27.8161 41.9295 28.363 41.703 28.7662 41.2998C29.1694 40.8966 29.3959 40.3497 29.3959 39.7795C29.3959 39.2093 29.1694 38.6624 28.7662 38.2592C28.363 37.856 27.8161 37.6295 27.2459 37.6295H23.1249V33.5105C23.1268 31.5865 23.8918 29.7417 25.2521 28.3811C26.6124 27.0204 28.4569 26.2549 30.3809 26.2525H39.7889C41.3333 26.2573 42.8357 26.7555 44.077 27.6744C45.3182 28.5933 46.2334 29.8848 46.6889 31.3605H42.9289C42.3587 31.3605 41.8118 31.587 41.4086 31.9902C41.0054 32.3934 40.7789 32.9403 40.7789 33.5105C40.7789 34.0807 41.0054 34.6276 41.4086 35.0308C41.8118 35.434 42.3587 35.6605 42.9289 35.6605H47.0499V47.2505C47.0526 47.4338 47.0028 47.614 46.9064 47.7699C46.81 47.9259 46.6711 48.051 46.5059 48.1305L43.6989 49.5305C42.9655 49.8951 42.3276 50.4265 41.8365 51.0821C41.3454 51.7376 41.0147 52.4991 40.8709 53.3055H36.6529ZM6.28391 39.7815C6.28391 39.9765 6.22611 40.1671 6.11781 40.3292C6.00951 40.4913 5.85558 40.6177 5.67547 40.6923C5.49536 40.767 5.29716 40.7866 5.10592 40.7486C4.91468 40.7107 4.73899 40.6168 4.60106 40.4791C4.46312 40.3413 4.36914 40.1657 4.33098 39.9745C4.29282 39.7833 4.3122 39.585 4.38668 39.4049C4.46115 39.2247 4.58738 39.0706 4.74939 38.9622C4.91141 38.8537 5.10194 38.7957 5.29691 38.7955C5.55843 38.7958 5.80917 38.8997 5.99418 39.0845C6.17919 39.2693 6.28338 39.52 6.28391 39.7815ZM11.5689 63.8815C11.7641 63.8815 11.9549 63.9394 12.1173 64.0478C12.2796 64.1563 12.4061 64.3104 12.4808 64.4908C12.5555 64.6711 12.575 64.8696 12.5369 65.0611C12.4989 65.2525 12.4049 65.4284 12.2668 65.5664C12.1288 65.7044 11.9529 65.7984 11.7615 65.8365C11.57 65.8746 11.3716 65.8551 11.1912 65.7804C11.0109 65.7057 10.8567 65.5791 10.7483 65.4168C10.6398 65.2545 10.5819 65.0637 10.5819 64.8685C10.5822 64.6068 10.6862 64.3559 10.8713 64.1709C11.0563 63.9858 11.3072 63.8818 11.5689 63.8815ZM58.6009 56.4495C58.4057 56.4495 58.2149 56.3916 58.0526 56.2832C57.8903 56.1747 57.7637 56.0206 57.689 55.8402C57.6143 55.6599 57.5948 55.4614 57.6329 55.2699C57.671 55.0785 57.765 54.9026 57.903 54.7646C58.041 54.6265 58.2169 54.5325 58.4084 54.4945C58.5998 54.4564 58.7983 54.4759 58.9786 54.5506C59.159 54.6253 59.3131 54.7518 59.4216 54.9141C59.53 55.0765 59.5879 55.2673 59.5879 55.4625C59.5877 55.7242 59.4836 55.9751 59.2985 56.1601C59.1135 56.3452 58.8626 56.4492 58.6009 56.4495ZM11.5689 13.7055C12.5886 13.7035 13.5859 13.4065 14.4406 12.8504C15.2953 12.2944 15.9709 11.5029 16.3859 10.5715H25.1269C25.2745 13.0221 26.3209 15.3321 28.0657 17.0592C29.8106 18.7863 32.1312 19.809 34.5832 19.9316C37.0352 20.0541 39.4462 19.2678 41.3545 17.7233C43.2628 16.1788 44.5343 13.9846 44.9255 11.5609C45.3167 9.1372 44.8 6.6544 43.4745 4.58794C42.149 2.52149 40.1077 1.01663 37.7417 0.361552C35.3756 -0.293521 32.8511 -0.0527663 30.6515 1.03771C28.452 2.12819 26.732 3.99174 25.8209 6.27149H16.3859C15.9983 5.40401 15.3838 4.6572 14.6072 4.10981C13.8306 3.56241 12.9206 3.23472 11.9733 3.16129C11.0261 3.08785 10.0765 3.27139 9.2248 3.69256C8.37311 4.11373 7.65084 4.75691 7.13417 5.55428C6.61749 6.35166 6.32556 7.27368 6.28914 8.22312C6.25272 9.17256 6.47318 10.1142 6.92725 10.9488C7.38133 11.7835 8.05221 12.4801 8.86913 12.9652C9.68606 13.4504 10.6188 13.7061 11.5689 13.7055ZM11.5689 9.40549C11.3737 9.40569 11.1827 9.34797 11.0203 9.23964C10.8578 9.13131 10.7312 8.97723 10.6563 8.79689C10.5815 8.61656 10.5618 8.41808 10.5998 8.22655C10.6377 8.03503 10.7316 7.85907 10.8696 7.72093C11.0076 7.5828 11.1835 7.4887 11.375 7.45053C11.5665 7.41237 11.765 7.43185 11.9454 7.50653C12.1258 7.5812 12.28 7.70771 12.3885 7.87004C12.497 8.03237 12.5549 8.22324 12.5549 8.41849C12.5546 8.68001 12.4507 8.93075 12.2659 9.11576C12.0811 9.30077 11.8304 9.40496 11.5689 9.40549ZM35.0849 4.30549C36.1867 4.29985 37.2664 4.61421 38.193 5.2104C39.1195 5.80659 39.8531 6.65897 40.3045 7.66404C40.756 8.66911 40.9059 9.78362 40.7361 10.8723C40.5663 11.9609 40.0841 12.9768 39.348 13.7967C38.612 14.6165 37.6537 15.205 36.5896 15.4908C35.5255 15.7765 34.4013 15.7471 33.3536 15.4062C32.3059 15.0653 31.3796 14.4276 30.6874 13.5704C29.9951 12.7132 29.5666 11.6735 29.4539 10.5775H33.5129C34.0831 10.5775 34.63 10.351 35.0332 9.94777C35.4364 9.54457 35.6629 8.99771 35.6629 8.42749C35.6629 7.85728 35.4364 7.31042 35.0332 6.90721C34.63 6.50401 34.0831 6.27749 33.5129 6.27749H30.8129C31.3416 5.66134 31.9969 5.16628 32.734 4.826C33.4712 4.48572 34.273 4.30819 35.0849 4.30549Z" fill="white"/>
</svg>
