<svg width="62" height="78" viewBox="0 0 62 78" fill="none" xmlns="http://www.w3.org/2000/svg">
<path d="M19.748 60.674C21.1123 59.2044 21.8688 57.2723 21.865 55.267C21.865 53.1357 21.0184 51.0917 19.5113 49.5847C18.0043 48.0776 15.9603 47.231 13.829 47.231C11.6977 47.231 9.65373 48.0776 8.14669 49.5847C6.63965 51.0917 5.793 53.1357 5.793 55.267C5.78988 57.2721 6.54628 59.204 7.91 60.674C5.54346 61.7942 3.54368 63.5635 2.14336 65.7758C0.743044 67.9882 -0.000239461 70.5527 5.78695e-08 73.171V75.6C0.000529519 76.1218 0.208042 76.622 0.576999 76.991C0.945956 77.36 1.44622 77.5675 1.968 77.568H25.691C26.2128 77.5675 26.713 77.36 27.082 76.991C27.451 76.622 27.6585 76.1218 27.659 75.6V73.171C27.66 70.552 26.9169 67.9867 25.5163 65.7737C24.1158 63.5607 22.1153 61.7911 19.748 60.671M13.681 63.29L13.83 63.304C13.8871 63.3035 13.944 63.2975 14 63.286C16.5898 63.3405 19.0559 64.4044 20.8726 66.2509C22.6893 68.0975 23.7128 70.5806 23.725 73.171V73.63H3.935V73.171C3.94812 70.5778 4.97497 68.0926 6.7961 66.2464C8.61724 64.4002 11.0882 63.3385 13.681 63.29ZM13.954 59.348L13.846 59.342L13.674 59.351C12.5824 59.3141 11.549 58.8499 10.7965 58.0583C10.044 57.2667 9.63266 56.2111 9.65109 55.1191C9.66952 54.0271 10.1163 52.986 10.8951 52.2202C11.6738 51.4545 12.7223 51.0254 13.8145 51.0254C14.9067 51.0254 15.9552 51.4545 16.7339 52.2202C17.5127 52.986 17.9595 54.0271 17.9779 55.1191C17.9963 56.2111 17.585 57.2667 16.8325 58.0583C16.08 58.8499 15.0466 59.3141 13.955 59.351M53.444 60.677C54.8077 59.207 55.5641 57.2751 55.561 55.27C55.561 53.1387 54.7144 51.0947 53.2073 49.5877C51.7003 48.0806 49.6563 47.234 47.525 47.234C45.3937 47.234 43.3497 48.0806 41.8427 49.5877C40.3356 51.0947 39.489 53.1387 39.489 55.27C39.4846 57.2731 40.2388 59.2035 41.6 60.673C39.2327 61.7931 37.2322 63.5627 35.8317 65.7757C34.4311 67.9887 33.688 70.554 33.689 73.173V75.6C33.6895 76.1218 33.897 76.622 34.266 76.991C34.635 77.36 35.1352 77.5675 35.657 77.568H59.385C59.9068 77.5675 60.407 77.36 60.776 76.991C61.145 76.622 61.3525 76.1218 61.353 75.6V73.171C61.3541 70.552 60.6111 67.9866 59.2105 65.7736C57.8099 63.5606 55.8094 61.791 53.442 60.671M47.647 59.344L47.537 59.338L47.365 59.347C46.2737 59.31 45.2407 58.8458 44.4885 58.0543C43.7363 57.2629 43.3251 56.2076 43.3436 55.1159C43.3621 54.0242 43.8088 52.9834 44.5873 52.2179C45.3659 51.4524 46.4141 51.0234 47.506 51.0234C48.5979 51.0234 49.6461 51.4524 50.4246 52.2179C51.2032 52.9834 51.6499 54.0242 51.6684 55.1159C51.6869 56.2076 51.2757 57.2629 50.5235 58.0543C49.7713 58.8458 48.7383 59.31 47.647 59.347M47.374 63.29L47.524 63.304C47.5791 63.3029 47.6341 63.2966 47.688 63.285C50.2781 63.3392 52.7445 64.403 54.5616 66.2495C56.3786 68.0961 57.4025 70.5794 57.415 73.17V73.629H37.631V73.17C37.6439 70.5771 38.6703 68.092 40.4911 66.2458C42.3119 64.3996 44.7815 63.3388 47.374 63.29ZM9.326 39.266H10.5V43.3C10.5022 43.8924 10.6804 44.4708 11.0119 44.9618C11.3435 45.4528 11.8134 45.8342 12.362 46.0577C12.9107 46.2812 13.5134 46.3367 14.0936 46.2171C14.6738 46.0975 15.2054 45.8082 15.621 45.386L21.608 39.261H35.32C36.918 39.2594 38.45 38.6239 39.58 37.494C40.7099 36.364 41.3454 34.832 41.347 33.234V32.166L45.397 36.295C45.673 36.5803 46.0037 36.8071 46.3693 36.9618C46.735 37.1164 47.128 37.1957 47.525 37.195C48.3159 37.1942 49.0742 36.8797 49.6334 36.3204C50.1927 35.7612 50.5072 35.0029 50.508 34.212V30.176H51.686C53.2839 30.1741 54.8158 29.5386 55.9457 28.4087C57.0756 27.2788 57.7111 25.7469 57.713 24.149V6.027C57.7111 4.42928 57.0757 2.89752 55.946 1.76767C54.8164 0.637815 53.2847 0.00211722 51.687 0L25.692 0C24.0941 0.00185263 22.5622 0.637433 21.4323 1.76731C20.3024 2.89719 19.6669 4.42911 19.665 6.027V9.09H9.326C7.7282 9.09185 6.19639 9.72747 5.06667 10.8574C3.93695 11.9873 3.30159 13.5192 3.3 15.117V33.238C3.30159 34.836 3.93708 36.368 5.06702 37.498C6.19696 38.6279 7.72903 39.2634 9.327 39.265M25.683 30.173H37.414V33.236C37.4135 33.7907 37.1929 34.3225 36.8007 34.7147C36.4085 35.1069 35.8767 35.3275 35.322 35.328H21.222C20.8239 35.3287 20.4299 35.4087 20.063 35.5632C19.6961 35.7177 19.3637 35.9437 19.085 36.228L14.445 40.975V38.315C14.4445 37.5242 14.1302 36.7659 13.5711 36.2066C13.012 35.6474 12.2538 35.3328 11.463 35.332H9.326C8.77133 35.3315 8.23953 35.1109 7.84732 34.7187C7.45511 34.3265 7.23453 33.7947 7.234 33.24V15.117C7.23479 14.5625 7.45549 14.031 7.84767 13.639C8.23985 13.247 8.7715 13.0265 9.326 13.026H19.656V24.148C19.6576 25.7457 20.293 27.2775 21.4227 28.4073C22.5525 29.537 24.0843 30.1724 25.682 30.174M53.782 24.148C53.7815 24.7025 53.561 25.2341 53.169 25.6263C52.777 26.0185 52.2455 26.2392 51.691 26.24H49.561C48.7703 26.2408 48.0121 26.5552 47.4529 27.1142C46.8937 27.6733 46.5791 28.4313 46.578 29.222V31.871L41.922 27.13C41.6435 26.8492 41.3124 26.626 40.9476 26.4733C40.5828 26.3206 40.1915 26.2413 39.796 26.24H39.496H25.682C25.1296 26.2353 24.6012 26.013 24.2115 25.6214C23.8218 25.2299 23.6021 24.7005 23.6 24.148V6.027C23.6008 5.47268 23.8214 4.94128 24.2133 4.54932C24.6053 4.15735 25.1367 3.93679 25.691 3.936H51.687C52.2413 3.93679 52.7727 4.15735 53.1647 4.54932C53.5567 4.94128 53.7772 5.47268 53.778 6.027L53.782 24.148ZM51.982 8.558C51.9815 9.07969 51.7739 9.57985 51.4049 9.94865C51.036 10.3174 50.5357 10.5247 50.014 10.525H27.391C26.8689 10.525 26.3682 10.3176 25.9991 9.94844C25.6299 9.57927 25.4225 9.07858 25.4225 8.5565C25.4225 8.03442 25.6299 7.53373 25.9991 7.16456C26.3682 6.79539 26.8689 6.588 27.391 6.588H50.013C50.5351 6.58853 51.0357 6.79632 51.4047 7.16571C51.7737 7.5351 51.982 8.03587 51.982 8.558ZM51.981 15.064C51.9805 15.5857 51.7729 16.0858 51.4039 16.4546C51.035 16.8234 50.5347 17.0307 50.013 17.031H27.391C26.8769 17.0194 26.3877 16.807 26.0282 16.4393C25.6687 16.0716 25.4674 15.5778 25.4674 15.0635C25.4674 14.5492 25.6687 14.0554 26.0282 13.6877C26.3877 13.32 26.8769 13.1076 27.391 13.096H50.013C50.5348 13.0965 51.035 13.304 51.404 13.673C51.773 14.042 51.9805 14.5422 51.981 15.064ZM51.981 21.57C51.9805 22.0918 51.773 22.592 51.404 22.961C51.035 23.33 50.5348 23.5375 50.013 23.538H27.391C26.8689 23.538 26.3682 23.3306 25.9991 22.9614C25.6299 22.5923 25.4225 22.0916 25.4225 21.5695C25.4225 21.0474 25.6299 20.5467 25.9991 20.1776C26.3682 19.8084 26.8689 19.601 27.391 19.601H50.013C50.5348 19.6015 51.035 19.809 51.404 20.178C51.773 20.547 51.9805 21.0482 51.981 21.57Z" fill="white"/>
</svg>
