<svg width="79" height="79" viewBox="0 0 79 79" fill="none" xmlns="http://www.w3.org/2000/svg">
<path d="M78.345 75.315L64.489 42.983C64.3106 42.5673 64.0142 42.2131 63.6365 41.9643C63.2588 41.7155 62.8163 41.5829 62.364 41.583H53.564C57.125 35.36 60.055 28.473 60.055 22.645C60.055 -7.36504 18.48 -7.73104 18.48 22.645C18.48 28.473 21.408 35.36 24.971 41.583H16.171C15.719 41.5831 15.277 41.7158 14.8996 41.9647C14.5223 42.2135 14.2262 42.5676 14.048 42.983L0.19003 75.315C0.0394797 75.6662 -0.0215694 76.0493 0.0123542 76.43C0.0462778 76.8107 0.174114 77.177 0.384407 77.4961C0.5947 77.8152 0.880879 78.0771 1.2173 78.2584C1.55372 78.4397 1.92986 78.5348 2.31203 78.535H76.223C76.6052 78.5348 76.9813 78.4397 77.3178 78.2584C77.6542 78.0771 77.9404 77.8152 78.1507 77.4961C78.361 77.177 78.4888 76.8107 78.5227 76.43C78.5566 76.0493 78.4956 75.6662 78.345 75.315ZM60.842 46.2L67.68 62.155C67.466 62.267 45.21 73.825 45.051 73.915H40.215C40.093 73.779 41.132 74.823 26.078 59.771L34.44 55.492C36.14 57.668 37.34 59.051 37.524 59.264C37.741 59.5131 38.0088 59.7129 38.3095 59.8498C38.6101 59.9867 38.9367 60.0575 39.267 60.0575C39.5974 60.0575 39.9239 59.9867 40.2246 59.8498C40.5253 59.7129 40.7931 59.5131 41.01 59.264C44.5309 55.1223 47.7819 50.7586 50.743 46.2H60.842ZM39.268 4.62996C47.055 4.62996 55.436 10.268 55.436 22.645C55.436 33.052 43.771 48.538 39.268 54.128C34.765 48.537 23.1 33.052 23.1 22.645C23.1 10.2 31.22 4.62996 39.268 4.62996ZM17.694 46.2C28.882 46.2 27.611 46.2 27.794 46.2C29.094 48.21 30.402 50.084 31.617 51.752L10.736 62.435L17.694 46.2ZM7.88703 69.082L21.758 61.982L33.692 73.915H5.81403L7.88703 69.082ZM55.061 73.915L69.505 66.415L72.72 73.915H55.061ZM46.2 20.8C46.2002 19.4294 45.794 18.0897 45.0327 16.95C44.2714 15.8104 43.1893 14.9222 41.9231 14.3976C40.657 13.873 39.2637 13.7357 37.9195 14.003C36.5753 14.2704 35.3406 14.9303 34.3715 15.8994C33.4024 16.8685 32.7424 18.1032 32.4751 19.4474C32.2078 20.7916 32.3451 22.1849 32.8697 23.451C33.3942 24.7172 34.2825 25.7993 35.4221 26.5606C36.5617 27.3219 37.9015 27.7282 39.272 27.728C41.1088 27.7258 42.8697 26.9952 44.1685 25.6965C45.4673 24.3977 46.1979 22.6367 46.2 20.8ZM36.962 20.8C36.962 20.3431 37.0975 19.8965 37.3513 19.5166C37.6052 19.1367 37.9659 18.8406 38.388 18.6658C38.8101 18.491 39.2746 18.4452 39.7227 18.5343C40.1708 18.6235 40.5824 18.8435 40.9054 19.1665C41.2285 19.4896 41.4485 19.9012 41.5376 20.3493C41.6268 20.7974 41.581 21.2619 41.4062 21.684C41.2314 22.1061 40.9353 22.4668 40.5554 22.7207C40.1755 22.9745 39.7289 23.11 39.272 23.11C38.6595 23.1094 38.0723 22.8659 37.6392 22.4328C37.2061 21.9997 36.9626 21.4124 36.962 20.8Z" fill="white"/>
</svg>
