<svg width="62" height="79" viewBox="0 0 62 79" fill="none" xmlns="http://www.w3.org/2000/svg">
<path d="M54.5 4.854H41.532C41.0506 3.43998 40.1392 2.21185 38.9253 1.34148C37.7114 0.471111 36.2557 0.0020704 34.762 0H27.02C25.5263 0.0020704 24.0706 0.471111 22.8567 1.34148C21.6428 2.21185 20.7314 3.43998 20.25 4.854H7.284C5.35405 4.85506 3.50331 5.62158 2.13778 6.98542C0.772254 8.34926 0.00344228 10.199 0 12.129L0 71.413C0.00344228 73.343 0.772254 75.1927 2.13778 76.5566C3.50331 77.9204 5.35405 78.687 7.284 78.688H54.5C56.43 78.687 58.2807 77.9204 59.6462 76.5566C61.0117 75.1927 61.7806 73.343 61.784 71.413V12.129C61.7806 10.199 61.0117 8.34926 59.6462 6.98542C58.2807 5.62158 56.43 4.85506 54.5 4.854ZM24.484 7.148C24.4851 6.47564 24.7526 5.83111 25.2279 5.35559C25.7032 4.88007 26.3476 4.61232 27.02 4.611H34.761C35.4339 4.61153 36.0791 4.87893 36.5551 5.35453C37.031 5.83014 37.2989 6.47512 37.3 7.148V7.168C37.2992 7.84061 37.0317 8.48545 36.5561 8.96105C36.0804 9.43666 35.4356 9.70421 34.763 9.705H27.02C26.3474 9.70421 25.7026 9.43666 25.2269 8.96105C24.7513 8.48545 24.4838 7.84061 24.483 7.168L24.484 7.148ZM57.171 71.413C57.1694 72.1204 56.8873 72.7982 56.3866 73.2978C55.8858 73.7974 55.2074 74.078 54.5 74.078H7.284C6.57621 74.0785 5.89712 73.7982 5.39579 73.2986C4.89446 72.7989 4.61185 72.1208 4.61 71.413V12.129C4.61212 11.4212 4.89478 10.7431 5.39602 10.2434C5.89726 9.74362 6.57619 9.463 7.284 9.463H20.25C20.7314 10.877 21.6428 12.1052 22.8567 12.9755C24.0706 13.8459 25.5263 14.3149 27.02 14.317H34.761C36.2547 14.3153 37.7104 13.8464 38.9242 12.976C40.1381 12.1055 41.0492 10.8772 41.53 9.463H54.5C55.2078 9.46273 55.8868 9.74331 56.3879 10.2431C56.8891 10.743 57.1714 11.4212 57.173 12.129L57.171 71.413ZM18.288 23.923L13.944 28.267L12.587 26.91C12.1548 26.4778 11.5687 26.235 10.9575 26.235C10.3463 26.235 9.76017 26.4778 9.328 26.91C8.89583 27.3422 8.65304 27.9283 8.65304 28.5395C8.65304 29.1507 8.89583 29.7368 9.328 30.169L11.67 32.511C12.2737 33.1134 13.0917 33.4517 13.9445 33.4517C14.7973 33.4517 15.6153 33.1134 16.219 32.511L21.549 27.181C21.763 26.9669 21.9327 26.7127 22.0485 26.433C22.1642 26.1533 22.2238 25.8535 22.2237 25.5508C22.2236 25.2481 22.1639 24.9483 22.0479 24.6687C21.932 24.3891 21.7621 24.135 21.548 23.921C21.3339 23.707 21.0797 23.5373 20.8 23.4215C20.5203 23.3058 20.2205 23.2462 19.9178 23.2463C19.6151 23.2464 19.3153 23.3061 19.0357 23.4221C18.7561 23.538 18.502 23.7089 18.288 23.923ZM50.08 26.507H27.72C27.1087 26.507 26.5224 26.7498 26.0901 27.1821C25.6578 27.6144 25.415 28.2007 25.415 28.812C25.415 29.4233 25.6578 30.0096 26.0901 30.4419C26.5224 30.8742 27.1087 31.117 27.72 31.117H50.08C50.6913 31.117 51.2776 30.8742 51.7099 30.4419C52.1422 30.0096 52.385 29.4233 52.385 28.812C52.385 28.2007 52.1422 27.6144 51.7099 27.1821C51.2776 26.7498 50.6913 26.507 50.08 26.507ZM18.288 40.165L13.944 44.509L12.587 43.152C12.3729 42.938 12.1187 42.7683 11.839 42.6525C11.5593 42.5368 11.2595 42.4772 10.9568 42.4773C10.6541 42.4774 10.3543 42.5371 10.0747 42.6531C9.79506 42.769 9.54099 42.9389 9.327 43.153C9.11301 43.3671 8.94329 43.6213 8.82753 43.901C8.71177 44.1807 8.65224 44.4805 8.65233 44.7832C8.65242 45.0859 8.71214 45.3857 8.82807 45.6653C8.944 45.9449 9.11388 46.199 9.328 46.413L11.67 48.755C12.2737 49.3574 13.0917 49.6957 13.9445 49.6957C14.7973 49.6957 15.6153 49.3574 16.219 48.755L21.549 43.427C21.7668 43.2137 21.9401 42.9593 22.059 42.6786C22.1778 42.3979 22.2398 42.0964 22.2414 41.7915C22.243 41.4867 22.1841 41.1846 22.0682 40.9026C21.9523 40.6207 21.7816 40.3645 21.5661 40.1489C21.3505 39.9334 21.0943 39.7627 20.8124 39.6468C20.5304 39.5309 20.2283 39.472 19.9235 39.4736C19.6186 39.4752 19.3171 39.5372 19.0364 39.656C18.7557 39.7749 18.5013 39.9472 18.288 40.165ZM50.08 42.749H27.72C27.1087 42.749 26.5224 42.9918 26.0901 43.4241C25.6578 43.8564 25.415 44.4427 25.415 45.054C25.415 45.6653 25.6578 46.2516 26.0901 46.6839C26.5224 47.1161 27.1087 47.359 27.72 47.359H50.08C50.6913 47.359 51.2776 47.1161 51.7099 46.6839C52.1422 46.2516 52.385 45.6653 52.385 45.054C52.385 44.4427 52.1422 43.8564 51.7099 43.4241C51.2776 42.9918 50.6913 42.749 50.08 42.749ZM18.288 55.58L13.944 59.924L12.587 58.568C12.3729 58.354 12.1187 58.1843 11.839 58.0685C11.5593 57.9528 11.2595 57.8932 10.9568 57.8933C10.6541 57.8934 10.3543 57.9531 10.0747 58.0691C9.79506 58.185 9.54099 58.3549 9.327 58.569C9.11301 58.7831 8.94329 59.0373 8.82753 59.317C8.71177 59.5967 8.65224 59.8965 8.65233 60.1992C8.65252 60.8106 8.89557 61.3968 9.328 61.829L11.67 64.17C12.2737 64.7724 13.0917 65.1107 13.9445 65.1107C14.7973 65.1107 15.6153 64.7724 16.219 64.17L21.549 58.84C21.7668 58.6267 21.9401 58.3723 22.059 58.0916C22.1778 57.8109 22.2398 57.5094 22.2414 57.2045C22.243 56.8997 22.1841 56.5976 22.0682 56.3156C21.9523 56.0337 21.7816 55.7775 21.5661 55.5619C21.3505 55.3464 21.0943 55.1757 20.8124 55.0598C20.5304 54.9439 20.2283 54.885 19.9235 54.8866C19.6186 54.8882 19.3171 54.9502 19.0364 55.069C18.7557 55.1879 18.5013 55.3612 18.288 55.579M50.08 58.164H27.72C27.1169 58.1766 26.5427 58.425 26.1205 58.856C25.6984 59.287 25.462 59.8662 25.462 60.4695C25.462 61.0728 25.6984 61.652 26.1205 62.083C26.5427 62.514 27.1169 62.7624 27.72 62.775H50.08C50.6831 62.7624 51.2573 62.514 51.6795 62.083C52.1016 61.652 52.338 61.0728 52.338 60.4695C52.338 59.8662 52.1016 59.287 51.6795 58.856C51.2573 58.425 50.6831 58.1766 50.08 58.164Z" fill="white"/>
</svg>
