<svg width="64" height="79" viewBox="0 0 64 79" fill="none" xmlns="http://www.w3.org/2000/svg">
<path d="M47.608 29.368L63.914 0H39.475L31.957 13.539L24.439 0H0L16.307 29.368C11.5957 32.6916 8.06483 37.4288 6.22591 42.8933C4.38698 48.3578 4.3355 54.2659 6.07891 59.7617C7.82232 65.2574 11.2701 70.0554 15.9228 73.4606C20.5754 76.8658 26.1914 78.7014 31.957 78.7014C37.7226 78.7014 43.3386 76.8658 47.9912 73.4606C52.6439 70.0554 56.0917 65.2574 57.8351 59.7617C59.5785 54.2659 59.527 48.3578 57.6881 42.8933C55.8492 37.4288 52.3183 32.6916 47.607 29.368M42.188 4.611H56.081L43.632 27.032C41.9612 26.2332 40.2127 25.6086 38.414 25.168L34.594 18.289L42.188 4.611ZM7.834 4.611H21.726L32.715 24.4C32.462 24.395 32.21 24.39 31.957 24.39C27.9166 24.3855 23.9268 25.2883 20.282 27.032L7.834 4.611ZM31.957 74.078C27.4996 74.077 23.1426 72.7543 19.4369 70.2772C15.7312 67.8001 12.8432 64.2798 11.1382 60.1615C9.43309 56.0431 8.98747 51.5116 9.85767 47.14C10.7279 42.7684 12.8748 38.753 16.027 35.6015C19.1792 32.45 23.1951 30.3039 27.5669 29.4347C31.9387 28.5655 36.4701 29.0121 40.5881 30.7181C44.7061 32.4241 48.2257 35.3128 50.702 39.0191C53.1783 42.7253 54.5 47.0826 54.5 51.54C54.4931 57.5162 52.1157 63.2456 47.8894 67.4709C43.6631 71.6963 37.9332 74.0724 31.957 74.078ZM31.957 33.612C28.4112 33.6122 24.9451 34.6638 21.997 36.6339C19.0489 38.604 16.7512 41.404 15.3944 44.6799C14.0376 47.9559 13.6827 51.5606 14.3746 55.0382C15.0665 58.5158 16.774 61.7102 19.2813 64.2174C21.7887 66.7245 24.9831 68.4319 28.4608 69.1236C31.9385 69.8153 35.5431 69.4602 38.819 68.1032C42.0948 66.7463 44.8947 64.4484 46.8647 61.5002C48.8346 58.5519 49.886 55.0858 49.886 51.54C49.881 46.7865 47.9904 42.2291 44.6292 38.8678C41.2679 35.5066 36.7105 33.617 31.957 33.612ZM31.957 64.856C29.3231 64.856 26.7484 64.0749 24.5584 62.6116C22.3684 61.1483 20.6615 59.0684 19.6536 56.635C18.6457 54.2015 18.382 51.5239 18.896 48.9406C19.4099 46.3573 20.6783 43.9845 22.5408 42.1221C24.4033 40.2597 26.7763 38.9915 29.3596 38.4778C31.9429 37.964 34.6205 38.2279 37.0539 39.236C39.4872 40.2441 41.567 41.9511 43.0302 44.1412C44.4933 46.3313 45.2742 48.9061 45.274 51.54C45.27 55.0707 43.8657 58.4556 41.3692 60.9522C38.8726 63.4487 35.4877 64.852 31.957 64.856Z" fill="white"/>
</svg>
