<svg width="73" height="73" viewBox="0 0 73 73" fill="none" xmlns="http://www.w3.org/2000/svg">
<path d="M71.016 18.879L63.035 5.251C62.0961 3.65528 60.7575 2.33178 59.1512 1.41099C57.545 0.490193 55.7265 0.0038841 53.875 0L40.341 0C38.6522 0.00211693 37.0332 0.67392 35.8391 1.86807C34.6449 3.06222 33.9731 4.68122 33.971 6.37V14.862C33.9713 16.5513 34.6425 18.1714 35.837 19.366C37.0316 20.5605 38.6517 21.2317 40.341 21.232H50.249C50.8119 21.2325 51.3516 21.4564 51.7496 21.8544C52.1476 22.2524 52.3715 22.7921 52.372 23.355V43.325C49.7488 41.7117 46.6893 40.9532 43.6163 41.1542C40.5433 41.3552 37.6087 42.5058 35.218 44.447C33.4299 41.7518 31.0035 39.5402 28.1546 38.009C25.3056 36.4777 22.1224 35.6743 18.888 35.67C13.8804 35.6758 9.07952 37.6677 5.5386 41.2086C1.99767 44.7495 0.00582251 49.5504 0 54.558C0.00529316 59.3073 1.89422 63.8606 5.25238 67.2189C8.61055 70.5773 13.1637 72.4664 17.913 72.472H39.832C50.7333 72.4581 61.4884 69.9638 71.283 65.178C71.6395 65.0031 71.9398 64.7318 72.15 64.395C72.3601 64.0581 72.4717 63.6691 72.472 63.272V24.243C72.471 22.3575 71.9685 20.5062 71.016 18.879ZM68.225 61.933C59.3287 66.065 49.64 68.212 39.831 68.225H17.913C14.2897 68.2208 10.816 66.7795 8.254 64.2173C5.69202 61.6551 4.25097 58.1813 4.247 54.558C4.25123 50.6763 5.79495 46.9549 8.53951 44.2099C11.2841 41.465 15.0053 39.9208 18.887 39.916C21.5095 39.9193 24.0875 40.5935 26.3757 41.8746C28.664 43.1557 30.5864 45.001 31.96 47.235L29.051 49.727C28.8383 49.9081 28.6635 50.1294 28.5365 50.3783C28.4096 50.6271 28.3329 50.8985 28.3111 51.177C28.2892 51.4555 28.3225 51.7356 28.409 52.0012C28.4956 52.2668 28.6337 52.5127 28.8155 52.7248C28.9973 52.9369 29.2192 53.111 29.4684 53.2372C29.7176 53.3634 29.9893 53.4392 30.2678 53.4602C30.5464 53.4813 30.8263 53.4471 31.0917 53.3597C31.357 53.2723 31.6025 53.1334 31.814 52.951L37.679 47.925C39.5982 46.265 42.051 45.3514 44.5885 45.3514C47.126 45.3514 49.5788 46.265 51.498 47.925L53.115 49.311C53.4232 49.5753 53.8007 49.7457 54.2028 49.8019C54.6049 49.8582 55.0147 49.798 55.3836 49.6284C55.7525 49.4589 56.0651 49.1871 56.2842 48.8453C56.5034 48.5035 56.6199 48.106 56.62 47.7V23.353C56.6201 21.786 56.0425 20.274 54.9977 19.1062C53.9529 17.9384 52.5143 17.1967 50.957 17.023V12.03C50.957 11.4669 50.7333 10.927 50.3352 10.5288C49.937 10.1307 49.3971 9.907 48.834 9.907H44.587C44.0238 9.907 43.4837 10.1307 43.0855 10.529C42.6872 10.9272 42.4635 11.4673 42.4635 12.0305C42.4635 12.5937 42.6872 13.1338 43.0855 13.532C43.4837 13.9303 44.0238 14.154 44.587 14.154H46.71V16.986H40.341C40.0622 16.9861 39.786 16.9313 39.5284 16.8247C39.2708 16.718 39.0367 16.5616 38.8395 16.3645C38.6424 16.1673 38.486 15.9332 38.3793 15.6756C38.2727 15.418 38.2179 15.1418 38.218 14.863V6.37C38.2188 5.80719 38.4427 5.26766 38.8407 4.86969C39.2387 4.47172 39.7782 4.24779 40.341 4.247H53.875C54.9866 4.24854 56.0786 4.54 57.0432 5.09259C58.0077 5.64519 58.8114 6.43981 59.375 7.398L67.357 21.024C67.9279 22.0008 68.2291 23.1116 68.23 24.243L68.225 61.933Z" fill="white"/>
</svg>
