<svg width="77" height="77" viewBox="0 0 77 77" fill="none" xmlns="http://www.w3.org/2000/svg">
<path d="M72.892 13.346C71.2698 12.5897 69.4136 12.5087 67.7317 13.1208C66.0497 13.7329 64.6797 14.988 63.923 16.61L62.337 20.01L57.811 17.899C59.3336 16.8965 60.5448 15.4873 61.3071 13.8314C62.0694 12.1754 62.3524 10.339 62.1238 8.53035C61.8953 6.72174 61.1644 5.01337 60.0142 3.59909C58.8639 2.1848 57.3403 1.12122 55.6162 0.528992C53.892 -0.0632316 52.0364 -0.160381 50.2599 0.248567C48.4834 0.657515 46.857 1.55619 45.5654 2.84263C44.2737 4.12906 43.3684 5.75177 42.9523 7.52663C42.5361 9.3015 42.6258 11.1575 43.211 12.884L31.481 9.96397C30.2539 9.6648 28.9678 9.71328 27.7668 10.104C26.5657 10.4947 25.4972 11.2121 24.681 12.176L16.127 22.376C15.5337 23.0517 15.0814 23.8391 14.7967 24.692C14.512 25.545 14.4005 26.4462 14.469 27.3428C14.5374 28.2394 14.7844 29.1133 15.1953 29.9131C15.6062 30.7129 16.1728 31.4226 16.8618 32.0004C17.5508 32.5782 18.3483 33.0124 19.2075 33.2777C20.0667 33.543 20.9702 33.6339 21.865 33.545C22.7598 33.4562 23.6279 33.1895 24.4182 32.7605C25.2084 32.3315 25.905 31.7489 26.467 31.047L32.313 24.082L33.79 24.449L31.674 28.985C30.7398 30.9873 30.2376 33.1638 30.2 35.373L29.009 49.217L20.492 52.317C18.81 52.9292 17.4401 54.1846 16.6837 55.8069C15.9272 57.4291 15.8462 59.2855 16.4585 60.9675C17.0708 62.6495 18.3261 64.0194 19.9484 64.7758C21.5707 65.5322 23.427 65.6132 25.109 65.001L37.615 60.449C38.6662 60.061 39.6053 59.4192 40.3487 58.5808C41.0921 57.7423 41.6167 56.7331 41.876 55.643L44.314 58.656L40.47 66.903C39.7693 68.5163 39.726 70.3395 40.3494 71.9843C40.9728 73.6292 42.2136 74.9656 43.8077 75.7092C45.4018 76.4528 47.2232 76.5448 48.884 75.9656C50.5449 75.3863 51.9141 74.1816 52.7 72.608L58.324 60.545C58.8537 59.3977 59.0528 58.1253 58.8989 56.871C58.7451 55.6167 58.2443 54.4302 57.453 53.445L47.507 41.145L52.55 30.332L62.75 35.085C64.3722 35.8415 66.2285 35.9226 67.9105 35.3105C69.5925 34.6984 70.9625 33.4432 71.719 31.821L76.156 22.317C76.9125 20.6948 76.9936 18.8385 76.3815 17.1565C75.7694 15.4745 74.5142 14.1045 72.892 13.348M52.444 4.51697C53.4824 4.51598 54.4977 4.82299 55.3615 5.39916C56.2254 5.97532 56.899 6.79476 57.297 7.7538C57.6951 8.71284 57.7997 9.7684 57.5978 10.7869C57.3958 11.8055 56.8963 12.7412 56.1624 13.4758C55.4285 14.2104 54.4932 14.7108 53.4749 14.9137C52.4565 15.1167 51.4009 15.013 50.4415 14.6159C49.482 14.2188 48.662 13.546 48.085 12.6827C47.508 11.8194 47.2 10.8043 47.2 9.76597C47.2016 8.3752 47.7544 7.04178 48.7374 6.05789C49.7203 5.07399 51.0532 4.51988 52.444 4.51697ZM32.036 19.376C31.6273 19.2739 31.1981 19.2888 30.7974 19.4189C30.3968 19.5491 30.0407 19.7892 29.77 20.112L23.022 28.154C22.6355 28.6009 22.0886 28.8779 21.4996 28.925C20.9106 28.9722 20.3266 28.7857 19.874 28.4059C19.4213 28.0261 19.1362 27.4835 19.0802 26.8952C19.0243 26.3069 19.202 25.7203 19.575 25.262L28.129 15.062C28.4009 14.7404 28.7572 14.5012 29.1577 14.3712C29.5582 14.2411 29.9871 14.2255 30.396 14.326L38.334 16.301C37.4258 17.1852 36.6864 18.2276 36.152 19.377L35.727 20.288L32.036 19.376ZM37.544 54.347C37.4978 54.7654 37.336 55.1628 37.0768 55.4945C36.8175 55.8262 36.4709 56.0791 36.076 56.225L23.57 60.778C23.2911 60.8847 22.9938 60.9349 22.6954 60.9256C22.3969 60.9162 22.1033 60.8476 21.8317 60.7236C21.56 60.5997 21.3158 60.4229 21.1131 60.2036C20.9105 59.9843 20.7535 59.7268 20.6514 59.4463C20.5493 59.1657 20.504 58.8676 20.5182 58.5693C20.5325 58.2711 20.6059 57.9786 20.7344 57.709C20.8628 57.4395 21.0435 57.1982 21.2662 56.9992C21.4888 56.8002 21.7488 56.6475 22.031 56.55L31.9 52.959C32.303 52.8121 32.6556 52.5532 32.9164 52.2127C33.1772 51.8722 33.3352 51.4643 33.372 51.037L33.831 45.699L37.926 50.761L37.544 54.347ZM72.078 20.417L67.641 29.932C67.516 30.1996 67.3395 30.4401 67.1216 30.6395C66.9037 30.8389 66.6486 30.9934 66.3709 31.0942C66.0932 31.1949 65.7984 31.24 65.5033 31.2267C65.2081 31.2135 64.9185 31.1422 64.651 31.017L52.418 25.317C52.1503 25.192 51.8605 25.121 51.5653 25.108C51.2701 25.095 50.9752 25.1403 50.6975 25.2414C50.4199 25.3424 50.1648 25.4972 49.947 25.6968C49.7292 25.8965 49.5528 26.1371 49.428 26.405L42.841 40.526C42.6626 40.9077 42.5953 41.3319 42.6465 41.7501C42.6978 42.1683 42.8657 42.5637 43.131 42.891L53.96 56.279C54.224 56.6074 54.391 57.0029 54.4423 57.4212C54.4935 57.8394 54.4269 58.2636 54.25 58.646L48.626 70.706C48.3659 71.2334 47.9096 71.6381 47.3548 71.8333C46.8 72.0285 46.1909 71.9987 45.6578 71.7503C45.1247 71.502 44.71 71.0547 44.5026 70.5044C44.2952 69.9541 44.3115 69.3444 44.548 68.806L48.985 59.291C49.1634 58.9092 49.2307 58.4851 49.1795 58.0668C49.1282 57.6486 48.9603 57.2533 48.695 56.926L37.2 42.717C35.882 41.075 35.0482 39.098 34.7924 37.008C34.5366 34.9181 34.8689 32.7983 35.752 30.887L40.23 21.287C40.901 19.8531 42.1108 18.7421 43.5964 18.1951C45.082 17.6482 46.7234 17.7096 48.164 18.366L48.184 18.375L48.203 18.384L62.476 25.039C62.7437 25.164 63.0335 25.235 63.3287 25.248C63.6239 25.2609 63.9188 25.2156 64.1965 25.1146C64.4741 25.0135 64.7292 24.8587 64.947 24.6591C65.1648 24.4594 65.3412 24.2188 65.466 23.951L68 18.512C68.2601 17.9845 68.7164 17.5798 69.2712 17.3846C69.826 17.1895 70.4351 17.2192 70.9682 17.4676C71.5013 17.716 71.916 18.1632 72.1234 18.7135C72.3308 19.2638 72.3145 19.8735 72.078 20.412V20.417ZM2.25 42.011H20.25C20.8467 42.011 21.419 41.7739 21.841 41.352C22.2629 40.93 22.5 40.3577 22.5 39.761C22.5 39.1642 22.2629 38.5919 21.841 38.17C21.419 37.748 20.8467 37.511 20.25 37.511H2.25C1.65326 37.511 1.08097 37.748 0.65901 38.17C0.237053 38.5919 0 39.1642 0 39.761C0 40.3577 0.237053 40.93 0.65901 41.352C1.08097 41.7739 1.65326 42.011 2.25 42.011ZM11.25 46.511H2.25C1.65326 46.511 1.08097 46.748 0.65901 47.17C0.237053 47.5919 0 48.1642 0 48.761C0 49.3577 0.237053 49.93 0.65901 50.352C1.08097 50.7739 1.65326 51.011 2.25 51.011H11.25C11.8467 51.011 12.419 50.7739 12.841 50.352C13.2629 49.93 13.5 49.3577 13.5 48.761C13.5 48.1642 13.2629 47.5919 12.841 47.17C12.419 46.748 11.8467 46.511 11.25 46.511Z" fill="white"/>
</svg>
