<svg width="67" height="77" viewBox="0 0 67 77" fill="none" xmlns="http://www.w3.org/2000/svg">
<path d="M44.687 40.4841V29.8091H60.149C61.9392 29.8091 63.6561 29.0979 64.922 27.832C66.1878 26.5662 66.899 24.8493 66.899 23.0591C66.899 21.2688 66.1878 19.552 64.922 18.2861C63.6561 17.0202 61.9392 16.3091 60.149 16.3091H40.978C41.6437 15.0702 41.9915 13.6855 41.99 12.2791V8.36706C41.9416 6.13148 41.0196 4.00376 39.4214 2.43979C37.8233 0.875812 35.6761 0 33.44 0C31.2039 0 29.0567 0.875812 27.4586 2.43979C25.8604 4.00376 24.9384 6.13148 24.89 8.36706V12.2791C24.8889 13.6853 25.2363 15.0699 25.901 16.3091H6.75C4.95979 16.3091 3.2429 17.0202 1.97703 18.2861C0.711159 19.552 0 21.2688 0 23.0591C0 24.8493 0.711159 26.5662 1.97703 27.832C3.2429 29.0979 4.95979 29.8091 6.75 29.8091H22.211V39.7591L10.624 46.2751C9.57279 46.8566 8.6981 47.7112 8.09227 48.7486C7.48644 49.786 7.17195 50.9677 7.182 52.1691L7.218 74.3581C7.21932 74.9541 7.4569 75.5253 7.87865 75.9465C8.30041 76.3677 8.87194 76.6045 9.468 76.6051H18.093C18.6678 76.6052 19.2207 76.3853 19.6384 75.9905C20.0561 75.5956 20.3068 75.0559 20.339 74.4821L21.275 57.8821L32.254 52.9981L50.994 75.7841C51.2051 76.0405 51.4702 76.2471 51.7706 76.3891C52.0709 76.531 52.3988 76.6048 52.731 76.6051H63.073C63.4742 76.6051 63.8681 76.4978 64.2139 76.2944C64.5598 76.091 64.8449 75.7989 65.0398 75.4482C65.2347 75.0975 65.3323 74.7011 65.3225 74.3C65.3127 73.8989 65.1958 73.5078 64.984 73.1671L44.687 40.4841ZM26.71 20.8091H40.188V39.5651H26.71V20.8091ZM62.4 23.0591C62.3992 23.6553 62.162 24.2269 61.7404 24.6485C61.3188 25.0701 60.7472 25.3073 60.151 25.3081H44.687V20.8081H60.149C60.7459 20.8083 61.3183 21.0456 61.7404 21.4677C62.1625 21.8897 62.3997 22.4621 62.4 23.0591ZM29.385 12.2781V8.36706C29.4181 7.31496 29.8593 6.31702 30.6152 5.5845C31.3711 4.85197 32.3824 4.44235 33.435 4.44235C34.4876 4.44235 35.4989 4.85197 36.2548 5.5845C37.0107 6.31702 37.4519 7.31496 37.485 8.36706V12.2791C37.484 13.28 37.1129 14.2453 36.4432 14.9892C35.7735 15.7331 34.8524 16.2032 33.857 16.3091H33.011C32.0158 16.2027 31.0951 15.7323 30.4257 14.9882C29.7564 14.2441 29.3857 13.2789 29.385 12.2781ZM6.75 25.3081C6.15326 25.3081 5.58097 25.071 5.15901 24.649C4.73705 24.2271 4.5 23.6548 4.5 23.0581C4.5 22.4613 4.73705 21.889 5.15901 21.4671C5.58097 21.0451 6.15326 20.8081 6.75 20.8081H22.211V25.3081H6.75ZM53.795 72.1081L34.917 49.1481C34.5769 48.6882 34.097 48.351 33.5491 48.1869C33.0012 48.0228 32.4148 48.0408 31.878 48.2381L18.191 54.3281C17.8134 54.4961 17.4894 54.7649 17.2546 55.1051C17.0198 55.4452 16.8833 55.8434 16.86 56.2561L15.967 72.1051H11.714L11.683 52.1611C11.6704 51.7589 11.7713 51.3613 11.9742 51.0138C12.177 50.6663 12.4736 50.3829 12.83 50.1961L23.877 43.9861C24.063 44.0361 41.614 44.0651 41.614 44.0651L59.028 72.1051L53.795 72.1081Z" fill="white"/>
</svg>
