<svg width="79" height="79" viewBox="0 0 79 79" fill="none" xmlns="http://www.w3.org/2000/svg">
<path d="M78.689 37.878C78.6916 36.9093 78.5019 35.9498 78.131 35.0549C77.76 34.1601 77.2152 33.3477 76.528 32.665L71.891 28.028C70.4859 26.6858 68.6176 25.9368 66.6745 25.9368C64.7314 25.9368 62.8631 26.6858 61.458 28.028L53.38 36.108C53.37 36.12 53.356 36.127 53.344 36.139C53.332 36.151 53.325 36.163 53.313 36.175L30.161 59.328C29.8344 59.6484 29.6052 60.0547 29.5 60.5L25.931 75.665C25.8467 76.0259 25.845 76.4011 25.9259 76.7628C26.0068 77.1244 26.1683 77.4632 26.3983 77.7537C26.6283 78.0443 26.921 78.2792 27.2544 78.441C27.5878 78.6027 27.9534 78.6872 28.324 78.688C28.5155 78.6892 28.7064 78.666 28.892 78.619L44.056 75.045C44.5006 74.9394 44.907 74.7123 45.23 74.389L68.392 51.229L68.417 51.21L68.436 51.185L76.528 43.094C77.2154 42.4108 77.7604 41.598 78.1314 40.7026C78.5023 39.8073 78.6919 38.8472 78.689 37.878ZM42.246 70.422L31.63 72.922L34.13 62.305L55.085 41.356L63.2 49.47L42.246 70.422ZM73.046 39.622L66.674 45.992L58.561 37.879L64.931 31.509C65.3924 31.0482 66.0179 30.7894 66.67 30.7894C67.3221 30.7894 67.9476 31.0482 68.409 31.509L73.046 36.146C73.2748 36.3739 73.4564 36.6448 73.5803 36.943C73.7042 37.2413 73.7679 37.561 73.7679 37.884C73.7679 38.207 73.7042 38.5267 73.5803 38.825C73.4564 39.1232 73.2748 39.3941 73.046 39.622ZM22.426 63.935H7.377C6.72491 63.9347 6.09961 63.6756 5.63852 63.2145C5.17742 62.7534 4.91827 62.1281 4.918 61.476V54.1H31.147C31.7991 54.0997 32.4244 53.8406 32.8855 53.3795C33.3466 52.9184 33.6057 52.2931 33.606 51.641V37.7H47.771C48.4232 37.7 49.0486 37.4409 49.5098 36.9798C49.9709 36.5186 50.23 35.8932 50.23 35.241C50.23 34.5888 49.9709 33.9634 49.5098 33.5022C49.0486 33.0411 48.4232 32.782 47.771 32.782H33.606V21.311H57.376V22.557C57.376 23.2092 57.6351 23.8346 58.0962 24.2958C58.5574 24.7569 59.1828 25.016 59.835 25.016C60.4872 25.016 61.1126 24.7569 61.5738 24.2958C62.0349 23.8346 62.294 23.2092 62.294 22.557V7.377C62.2921 5.42107 61.5143 3.54577 60.1313 2.16272C58.7482 0.779666 56.8729 0.00185334 54.917 0L7.377 0C5.42107 0.00185334 3.54577 0.779666 2.16272 2.16272C0.779666 3.54577 0.00185334 5.42107 0 7.377L0 61.477C0.00185334 63.4329 0.779666 65.3082 2.16272 66.6913C3.54577 68.0743 5.42107 68.8521 7.377 68.854H22.426C23.0782 68.854 23.7036 68.5949 24.1648 68.1338C24.6259 67.6726 24.885 67.0472 24.885 66.395C24.885 65.7428 24.6259 65.1174 24.1648 64.6562C23.7036 64.1951 23.0782 63.935 22.426 63.935ZM28.688 49.182H4.918V37.706H28.688V49.182ZM28.688 32.787H4.918V21.311H28.688V32.787ZM7.377 4.918H54.917C55.5691 4.91827 56.1944 5.17742 56.6555 5.63852C57.1166 6.09961 57.3757 6.72491 57.376 7.377V16.393H4.918V7.377C4.91827 6.72491 5.17742 6.09961 5.63852 5.63852C6.09961 5.17742 6.72491 4.91827 7.377 4.918Z" fill="white"/>
</svg>
