<svg width="78" height="78" viewBox="0 0 78 78" fill="none" xmlns="http://www.w3.org/2000/svg">
<path d="M64.368 54.5336C63.552 53.2652 62.2841 52.3547 60.8214 51.9868C59.3588 51.619 57.811 51.8212 56.492 52.5526L44.149 58.6726C43.848 57.7465 43.3267 56.9073 42.63 56.227C41.9333 55.5467 41.082 55.0455 40.149 54.7666L34.241 53.0076C29.908 51.7196 24.199 50.6646 18.477 53.9606C18.138 54.1606 17.829 54.3606 17.53 54.5496C16.6402 55.2429 15.5409 55.6125 14.413 55.5976C14.057 54.8479 13.4953 54.2149 12.7933 53.7722C12.0913 53.3296 11.2779 53.0956 10.448 53.0976H4.392C3.2273 53.0997 2.11095 53.5635 1.28767 54.3874C0.464378 55.2112 0.0013216 56.3279 0 57.4926L0 71.5636C-1.92655e-06 72.7291 0.46247 73.8471 1.2859 74.672C2.10933 75.497 3.22643 75.9615 4.392 75.9636H10.449C11.5011 75.962 12.5178 75.5834 13.3147 74.8965C14.1117 74.2096 14.6361 73.2599 14.793 72.2196C17.2079 72.2517 19.6031 72.6589 21.893 73.4266C23.604 73.9266 31.772 76.3096 32.386 76.4876C34.1777 77.1115 36.0492 77.4771 37.944 77.5736C40.188 77.5736 42.352 76.7976 45.005 75.0276L62.57 62.4956C63.8347 61.6532 64.727 60.3567 65.0621 58.8745C65.3972 57.3923 65.1494 55.8381 64.37 54.5336H64.368ZM40.58 61.1226C40.4135 61.6814 40.033 62.1519 39.5214 62.4317C39.0098 62.7115 38.4084 62.7779 37.848 62.6166L29.4 60.1566C29.1602 60.0812 28.9078 60.0545 28.6575 60.078C28.4072 60.1015 28.1642 60.1747 27.9426 60.2933C27.721 60.412 27.5253 60.5737 27.3671 60.769C27.2088 60.9643 27.0911 61.1892 27.021 61.4306C26.9508 61.672 26.9295 61.9249 26.9584 62.1746C26.9873 62.4243 27.0657 62.6657 27.1891 62.8847C27.3126 63.1037 27.4785 63.2958 27.6771 63.4498C27.8758 63.6038 28.1032 63.7166 28.346 63.7816L36.8 66.2396C38.1727 66.6346 39.6412 66.5269 40.9416 65.9359C42.242 65.3449 43.2888 64.3094 43.894 63.0156L58.17 55.9316C58.6508 55.6397 59.2233 55.5377 59.7753 55.6455C60.3274 55.7533 60.8193 56.0632 61.155 56.5146C61.4215 57.0063 61.4897 57.5814 61.3456 58.1218C61.2015 58.6622 60.856 59.1269 60.38 59.4206L42.838 71.9296C39.01 74.4796 37.493 74.0376 33.438 72.8606C32.817 72.6796 24.666 70.3036 22.959 69.8016C20.3408 68.9321 17.6036 68.4739 14.845 68.4436V59.3586C16.5506 59.3013 18.1995 58.7319 19.577 57.7246C19.83 57.5606 20.093 57.3916 20.369 57.2316C23.907 55.1946 27.736 55.0136 33.169 56.6316L39.079 58.3876C39.639 58.555 40.1105 58.9365 40.3913 59.4491C40.6721 59.9618 40.7395 60.5645 40.579 61.1266M11.066 57.4966V71.5636C11.0625 71.7269 10.9964 71.8825 10.8814 71.9985C10.7664 72.1144 10.6112 72.1818 10.448 72.1866H4.392C4.22885 72.1815 4.07384 72.1141 3.95888 71.9982C3.84392 71.8823 3.77776 71.7268 3.774 71.5636V57.4926C3.77803 57.3298 3.84438 57.1747 3.95936 57.0593C4.07434 56.944 4.22919 56.8771 4.392 56.8726H10.449C10.6119 56.8769 10.7669 56.9437 10.8819 57.0591C10.9969 57.1745 11.0632 57.3297 11.067 57.4926M75.227 17.4126H69.374C69.4895 15.0013 69.1143 12.5916 68.2711 10.3295C67.428 8.06748 66.1345 6.00009 64.469 4.25258C63.0703 2.81997 61.3827 1.70149 59.5183 0.971472C57.654 0.241455 55.6556 -0.0833719 53.656 0.0185825C49.6371 0.212204 45.8209 1.84039 42.9 4.60758L42.675 4.81658C42.375 5.10358 42.06 5.39358 41.815 5.60658C41.565 5.38758 41.246 5.09058 40.936 4.80058L40.726 4.60758C37.8031 1.84003 33.9846 0.212506 29.964 0.0205825C27.9637 -0.0880023 25.9633 0.233966 24.0981 0.964738C22.2329 1.69551 20.5462 2.81807 19.152 4.25658C17.4866 6.00353 16.1931 8.0704 15.35 10.332C14.5068 12.5935 14.1316 15.0027 14.247 17.4136H8.394C7.90066 17.4249 7.43135 17.6289 7.08646 17.9818C6.74156 18.3347 6.54846 18.8086 6.54846 19.3021C6.54846 19.7955 6.74156 20.2694 7.08646 20.6224C7.43135 20.9753 7.90066 21.1792 8.394 21.1906H14.815C15.5791 24.1304 17.0895 26.823 19.2 29.0076L20.933 30.6796C21.2945 31.0203 21.7758 31.2046 22.2724 31.1927C22.7691 31.1808 23.2409 30.9735 23.5857 30.6158C23.9305 30.2582 24.1203 29.779 24.114 29.2823C24.1077 28.7856 23.9057 28.3114 23.552 27.9626L21.852 26.3196C20.4512 24.8609 19.3923 23.1089 18.752 21.1906H22.622L26.196 25.9906C26.3795 26.2255 26.6136 26.4159 26.881 26.5476C27.1483 26.6794 27.442 26.7491 27.74 26.7516C28.0394 26.7469 28.3335 26.6709 28.5976 26.5299C28.8618 26.3888 29.0885 26.1868 29.259 25.9406L31.319 22.9846L33.566 27.4686C33.7207 27.7772 33.9571 28.0375 34.2494 28.2212C34.5417 28.4048 34.8788 28.5048 35.2239 28.5103C35.5691 28.5157 35.9092 28.4265 36.2071 28.2521C36.5051 28.0778 36.7496 27.8251 36.914 27.5216L41.814 18.4686L46.714 27.5216C46.8755 27.8265 47.1189 28.0803 47.4167 28.2544C47.7146 28.4286 48.0551 28.5163 48.4 28.5076C48.7452 28.502 49.0823 28.4019 49.3746 28.2182C49.6669 28.0345 49.9032 27.7742 50.058 27.4656L52.304 22.9816L54.364 25.9376C54.5352 26.1838 54.7625 26.3857 55.0272 26.5267C55.2918 26.6677 55.5862 26.7438 55.886 26.7486C56.1859 26.7579 56.4835 26.6931 56.7525 26.5601C57.0214 26.427 57.2535 26.2297 57.428 25.9856L61 21.1886H64.872C64.2269 23.1002 63.1712 24.8474 61.779 26.3076L41.811 45.5976L22.459 26.8816C22.2816 26.7057 22.071 26.5667 21.8394 26.4728C21.6078 26.379 21.36 26.332 21.1101 26.3347C20.8603 26.3374 20.6134 26.3897 20.3839 26.4885C20.1545 26.5873 19.9469 26.7308 19.7733 26.9105C19.5997 27.0902 19.4635 27.3026 19.3726 27.5353C19.2817 27.7681 19.238 28.0165 19.2439 28.2663C19.2499 28.5161 19.3053 28.7623 19.4071 28.9904C19.509 29.2186 19.6551 29.4243 19.837 29.5956L40.5 49.5786C40.8518 49.9184 41.3219 50.1084 41.811 50.1084C42.3001 50.1084 42.7702 49.9184 43.122 49.5786L64.47 28.9546C66.5563 26.78 68.0496 24.1064 68.807 21.1896H75.228C75.7213 21.1782 76.1907 20.9743 76.5355 20.6214C76.8804 20.2684 77.0735 19.7945 77.0735 19.3011C77.0735 18.8076 76.8804 18.3337 76.5355 17.9808C76.1907 17.6279 75.7203 17.4239 75.227 17.4126ZM65.603 17.4126H60.051C59.757 17.4136 59.4672 17.4829 59.2045 17.615C58.9417 17.747 58.7133 17.9382 58.537 18.1736L55.966 21.6346L53.592 18.2206C53.4063 17.9508 53.1527 17.7348 52.8569 17.5944C52.5611 17.4539 52.2334 17.394 51.907 17.4206C51.581 17.4455 51.267 17.5542 50.9953 17.736C50.7236 17.9179 50.5034 18.1667 50.356 18.4586L48.309 22.5436L43.471 13.6076C43.309 13.3086 43.0692 13.0589 42.777 12.8849C42.4848 12.7109 42.1511 12.619 41.811 12.619C41.4709 12.619 41.1372 12.7109 40.845 12.8849C40.5528 13.0589 40.313 13.3086 40.151 13.6076L35.314 22.5446L33.267 18.4596C33.1196 18.1677 32.8994 17.9189 32.6277 17.737C32.356 17.5552 32.042 17.4465 31.716 17.4216C31.3896 17.3949 31.0619 17.4548 30.766 17.5952C30.4702 17.7357 30.2166 17.9518 30.031 18.2216L27.655 21.6356L25.08 18.1736C24.9035 17.938 24.6747 17.7466 24.4116 17.6145C24.1486 17.4824 23.8584 17.4133 23.564 17.4126H18.017C17.8999 15.4858 18.1816 13.5555 18.8444 11.7425C19.5071 9.92942 20.5368 8.2726 21.869 6.87558C25.993 2.60258 33.296 2.81958 38.147 7.35958L38.347 7.55158C39.654 8.77458 40.517 9.58358 41.806 9.58358C43.095 9.58358 43.957 8.77758 45.265 7.55158L45.465 7.35958C50.316 2.81858 57.618 2.60258 61.742 6.87558C63.0757 8.27183 64.1067 9.92837 64.7705 11.7415C65.4344 13.5546 65.7168 15.4853 65.6 17.4126" fill="white"/>
</svg>
