<svg width="79" height="79" viewBox="0 0 79 79" fill="none" xmlns="http://www.w3.org/2000/svg">
<g clip-path="url(#clip0_29_305)">
<path d="M39.344 78.689C47.1255 78.689 54.7322 76.3815 61.2023 72.0584C67.6723 67.7353 72.7151 61.5906 75.693 54.4015C78.6709 47.2124 79.4501 39.3017 77.9321 31.6697C76.4141 24.0378 72.667 17.0273 67.1648 11.5249C61.6625 6.02254 54.6522 2.27531 47.0202 0.7571C39.3883 -0.76111 31.4776 0.01789 24.2884 2.99559C17.0992 5.97329 10.9544 11.016 6.63115 17.4859C2.30785 23.9559 0.00019778 31.5625 0 39.344C0.0129659 49.7748 4.16226 59.7747 11.5379 67.1504C18.9134 74.5262 28.9132 78.6758 39.344 78.689ZM39.344 5.24499C46.0883 5.24499 52.6812 7.24492 58.2889 10.9919C63.8967 14.7388 68.2673 20.0645 70.8483 26.2955C73.4292 32.5264 74.1045 39.3828 72.7888 45.9976C71.473 52.6123 68.2253 58.6884 63.4563 63.4573C58.6874 68.2263 52.6113 71.474 45.9966 72.7898C39.3818 74.1055 32.5255 73.4302 26.2945 70.8493C20.0635 68.2683 14.7378 63.8977 10.9909 58.2899C7.24393 52.6822 5.244 46.0893 5.244 39.345C5.25247 30.3037 8.84786 21.6352 15.241 15.242C21.6342 8.84886 30.3027 5.25347 39.344 5.24499ZM50.819 51.882C51.0873 52.0979 51.3956 52.2587 51.7262 52.3551C52.0569 52.4515 52.4033 52.4817 52.7456 52.4439C53.0879 52.4061 53.4193 52.301 53.7209 52.1347C54.0225 51.9685 54.2883 51.7443 54.503 51.475C54.937 50.9324 55.138 50.2399 55.0621 49.5493C54.9862 48.8586 54.6395 48.2263 54.098 47.791L41.966 38.085V18.361C41.9728 18.0123 41.91 17.6657 41.7813 17.3416C41.6525 17.0175 41.4605 16.7222 41.2163 16.4732C40.9721 16.2242 40.6807 16.0264 40.3591 15.8914C40.0375 15.7563 39.6923 15.6868 39.3435 15.6868C38.9947 15.6868 38.6495 15.7563 38.3279 15.8914C38.0063 16.0264 37.7149 16.2242 37.4707 16.4732C37.2265 16.7222 37.0345 17.0175 36.9057 17.3416C36.777 17.6657 36.7142 18.0123 36.721 18.361V39.344C36.7215 39.7364 36.8096 40.1238 36.979 40.4778C37.1484 40.8318 37.3947 41.1434 37.7 41.39L50.819 51.882Z" fill="white"/>
</g>
<defs>
<clipPath id="clip0_29_305">
<rect width="78.689" height="78.689" fill="white"/>
</clipPath>
</defs>
</svg>
