<svg width="104" height="120" viewBox="0 0 104 120" fill="none" xmlns="http://www.w3.org/2000/svg">
<path d="M98.7596 51.4844C102.123 57.7865 104 64.8698 104 72.3438C104 98.6719 80.718 120 52.013 120C23.3081 120 0 98.6719 0 72.3438C0 64.8698 1.87716 57.7865 5.24041 51.4844C2.5811 57.2135 1.12108 63.5156 1.12108 70.1302C1.12108 96.224 23.9078 117.37 52.013 117.37C80.1183 117.37 102.905 96.224 102.905 70.1302C102.905 63.5156 101.419 57.1875 98.7857 51.4844M13.2444 84.2187L13.6355 84.974L9.90725 89.401L9.46403 88.5156L10.3765 87.474L9.28152 85.2604L7.89972 85.3385L7.48258 84.4792L13.2444 84.1927V84.2187ZM10.9501 86.8229L12.4362 85.0781L10.1419 85.2083L10.9501 86.8229ZM11.2369 90.0781L12.0973 90.1562C12.0191 90.8073 12.0973 91.3802 12.4883 91.901C12.8012 92.3698 13.2444 92.526 13.5573 92.2917C13.8701 92.0833 13.9223 91.7708 13.5573 90.8594C13.1401 89.7917 13.0619 89.0885 13.8441 88.5417C14.5741 88.0208 15.5127 88.2812 16.1123 89.1406C16.5555 89.7656 16.712 90.3906 16.6598 91.0937H15.7994C15.7994 90.4948 15.6952 90 15.4344 89.6094C15.1216 89.1667 14.7305 89.0625 14.4437 89.2708C14.1048 89.5052 14.1048 89.8177 14.4698 90.7812C14.8869 91.849 14.8869 92.5521 14.1569 93.0469C13.3487 93.6198 12.4362 93.3073 11.8105 92.3958C11.3673 91.7448 11.1587 90.9635 11.263 90.1042M14.4177 94.5312H15.278C15.278 95.1823 15.4344 95.7031 15.8777 96.1979C16.2687 96.6146 16.6859 96.7188 16.9987 96.4583C17.2855 96.1979 17.2855 95.9115 16.8162 95.026C16.2687 94.0104 16.1123 93.3333 16.8162 92.6823C17.4941 92.0833 18.4588 92.2135 19.1366 92.9948C19.6581 93.5677 19.8666 94.1667 19.9188 94.8437L19.0584 94.9479C19.0063 94.349 18.8238 93.8802 18.5109 93.5156C18.1459 93.099 17.7288 93.0729 17.468 93.2812C17.1552 93.5677 17.1812 93.8542 17.6766 94.7656C18.2241 95.7812 18.3023 96.4583 17.6766 97.0573C16.9466 97.7344 15.982 97.526 15.2519 96.7187C14.7044 96.1198 14.4177 95.3646 14.4177 94.5312ZM21.3788 95.4427L24.3249 97.9948L23.7774 98.6198L21.5352 96.6667L20.6488 97.7083L22.6302 99.4271L22.0827 100.052L20.1013 98.3333L19.1627 99.401L21.4309 101.38L20.8834 102.005L17.9113 99.4271L21.3527 95.4687L21.3788 95.4427ZM22.552 102.292L23.3863 102.057C23.5688 102.708 23.8295 103.177 24.377 103.542C24.8463 103.854 25.2895 103.854 25.5242 103.542C25.7328 103.229 25.6806 102.943 25.0028 102.188C24.2206 101.328 23.8817 100.703 24.4292 99.9219C24.9245 99.1667 25.9153 99.0625 26.7756 99.6615C27.4014 100.078 27.7924 100.625 27.9749 101.276L27.1667 101.562C26.9842 101.016 26.6974 100.573 26.2803 100.312C25.8371 100 25.4199 100.052 25.2113 100.339C24.9767 100.677 25.081 100.964 25.7849 101.745C26.541 102.578 26.8017 103.255 26.3324 103.958C25.7849 104.792 24.8203 104.844 23.9077 104.219C23.2299 103.776 22.7606 103.125 22.552 102.292ZM27.0885 105.26L27.8967 104.922C28.1314 105.547 28.4703 105.99 29.0439 106.302C29.5392 106.562 29.9825 106.51 30.165 106.146C30.3475 105.807 30.2432 105.521 29.4871 104.87C28.6267 104.115 28.2096 103.542 28.6528 102.682C29.0699 101.875 30.0346 101.667 30.9471 102.161C31.625 102.526 32.0682 102.995 32.3289 103.62L31.5728 104.01C31.3121 103.49 30.9732 103.099 30.556 102.865C30.0867 102.604 29.6696 102.708 29.5132 103.021C29.3307 103.385 29.461 103.672 30.2432 104.349C31.1035 105.104 31.4425 105.729 31.0253 106.484C30.5821 107.37 29.6174 107.526 28.6267 107.031C27.9228 106.667 27.3753 106.068 27.0624 105.26M32.7461 106.094C33.2414 104.688 34.7536 103.932 36.2657 104.479C37.7779 105.026 38.4297 106.562 37.9082 107.943C37.4129 109.349 35.9007 110.104 34.3886 109.557C32.8764 109.01 32.2246 107.474 32.7461 106.094ZM36.9957 107.656C37.3347 106.693 36.9436 105.625 35.9529 105.286C34.9621 104.922 33.9975 105.469 33.6586 106.406C33.3196 107.37 33.7107 108.437 34.7014 108.776C35.6922 109.141 36.6568 108.594 36.9957 107.656ZM40.0201 105.807L42.3144 106.302C42.9662 106.432 43.4355 106.745 43.6701 107.135C43.8787 107.474 43.9569 107.891 43.8526 108.333C43.6701 109.193 43.0444 109.583 42.2883 109.635L43.2529 111.875L42.184 111.641L41.3236 109.583L40.2026 109.323L39.8115 111.12L38.899 110.911L40.0201 105.781V105.807ZM41.6886 108.828C42.3404 108.958 42.8097 108.724 42.9401 108.203C43.0704 107.63 42.7315 107.24 42.0536 107.109L40.7501 106.823L40.359 108.542L41.6886 108.828ZM45.6255 106.875L46.538 106.979L45.8862 112.188L44.9737 112.083L45.6255 106.875ZM50.0055 107.214H50.8659L53.0038 112.604H52.0391L51.5438 111.276L49.0669 111.198L48.4934 112.448H47.5548L50.0316 107.214H50.0055ZM51.2309 110.469L50.3966 108.333L49.4319 110.417L51.2309 110.469ZM94.6142 23.151C95.2138 24.7917 95.7874 26.6927 96.1785 28.724C96.2828 29.1927 96.361 29.6875 96.4131 30.1562C96.0481 32.4479 94.9271 35.2604 91.7724 35.5208C91.5117 35.5208 91.277 35.7292 91.1988 35.9896C91.1206 36.25 91.1988 36.5365 91.4334 36.6927C91.4856 36.7448 92.5545 37.5 94.0406 37.5C94.3795 37.5 94.7446 37.4479 95.1356 37.3438C95.6831 37.1875 96.2046 36.9271 96.6999 36.5625C96.5174 39.2708 95.9438 41.849 94.9531 44.3229C96.1264 45.9115 97.1692 47.5521 98.0817 49.2708C101.523 42.7344 102.514 35.3646 100.95 27.6042C99.3071 19.401 95.4224 13.6458 95.266 13.4115C94.6663 12.5521 93.6235 12.1615 92.6067 12.4219C91.5899 12.6823 90.8599 13.5677 90.7817 14.6094C90.0777 23.099 88.2527 29.7656 85.7498 35.1042C87.1055 36.1198 88.3831 37.2135 89.6084 38.3333C91.8767 33.8281 93.5453 28.776 94.6142 23.151ZM7.274 36.5625C7.76937 36.9271 8.2908 37.1875 8.83831 37.3438C9.22938 37.4479 9.59439 37.5 9.93332 37.5C11.3933 37.5 12.4623 36.7448 12.5144 36.6927C12.723 36.5365 12.8273 36.25 12.7491 35.9896C12.6708 35.7292 12.4623 35.5469 12.1755 35.5208C9.02081 35.2604 7.89972 32.474 7.53472 30.2083C7.61294 29.7135 7.69115 29.2187 7.79544 28.724C8.18651 26.6927 8.76009 24.7917 9.35974 23.151C10.4548 28.9323 12.2016 34.1667 14.5741 38.776C15.7734 37.6302 17.0509 36.5365 18.3805 35.4948C15.7994 30.1042 13.8701 23.3073 13.1662 14.6094C13.088 13.5677 12.358 12.7083 11.3412 12.4219C10.3244 12.1615 9.25545 12.5521 8.68188 13.4115C8.52544 13.6458 4.64076 19.401 2.99825 27.6042C1.3818 35.651 2.50288 43.2292 6.20506 49.9219C7.0915 48.2031 8.08223 46.5365 9.22938 44.9479C8.1083 42.2917 7.45651 39.4792 7.24793 36.5625M38.5861 13.4896C38.56 13.3073 38.4297 13.125 38.2472 13.0469C38.0647 12.9688 37.8561 12.9427 37.6736 13.0469L33.5543 14.974C33.2936 15.1042 33.1371 15.3906 33.1893 15.6771L34.4146 22.2656C34.2582 22.3958 34.0496 22.5521 33.7889 22.7344C33.3718 23.0208 32.8243 23.3333 32.1985 23.6198C31.5728 23.9062 31.0514 24.0365 30.6082 24.0104C30.191 23.9844 29.826 23.8021 29.461 23.4896C28.5224 22.6562 27.8185 20.9115 27.3231 18.2812C26.8278 15.6771 26.8278 13.5937 27.3231 12.0312C27.7924 10.5208 28.731 9.47917 30.2171 8.77604C30.53 8.64583 30.8428 8.48958 31.1557 8.35938C31.4946 8.22917 31.8596 8.09896 32.2507 7.96875C32.6418 7.83854 33.1111 7.70833 33.6064 7.57812C34.1279 7.44792 34.7275 7.31771 35.4054 7.16146C35.6922 7.08333 35.9007 6.82292 35.9007 6.53646V2.83854C35.9007 2.65625 35.7964 2.47396 35.6661 2.36979C35.5357 2.23958 35.3532 2.1875 35.1707 2.21354C33.6846 2.39583 32.355 2.65625 31.2339 2.96875C30.1128 3.28125 29.1221 3.64583 28.3139 4.01042C26.8799 4.6875 25.6546 5.57292 24.6378 6.64062C23.621 7.70833 22.8127 8.98437 22.2392 10.4167C21.6656 11.8229 21.3006 13.4115 21.1963 15.1302C21.0659 16.8229 21.1963 18.6719 21.5613 20.599C22.2913 24.5573 23.647 27.2656 25.5763 28.6979C26.6453 29.4792 27.8185 29.8698 29.1221 29.8698C30.2692 29.8698 31.5207 29.5573 32.8764 28.9323C33.3978 28.6719 33.9454 28.3854 34.4929 28.0729C35.0143 27.7344 35.5879 27.3437 36.1354 26.9271C36.709 26.4844 37.3086 25.9635 37.9604 25.3906C38.6122 24.8177 39.3161 24.1146 40.0983 23.3073C40.2547 23.151 40.3068 22.9427 40.2808 22.7344L38.56 13.5156L38.5861 13.4896ZM84.5766 7.5L80.4573 5.67708C80.2748 5.59896 80.0662 5.59896 79.8837 5.70312C79.7012 5.80729 79.5969 5.96354 79.5708 6.17187C79.5708 6.22396 78.9972 10.2083 77.1201 16.875C75.2429 23.5156 73.079 27.1354 73.0529 27.1875C72.9486 27.3437 72.9225 27.526 73.0008 27.7083C73.0529 27.8906 73.1833 28.0208 73.3658 28.099L77.4851 29.9219C77.4851 29.9219 77.6676 29.974 77.7458 29.974C77.9544 29.974 78.163 29.8698 78.2933 29.6875C78.3715 29.5573 80.4573 26.25 82.4909 19.0885C84.5244 11.9792 84.9677 8.30729 84.9937 8.15104C85.0198 7.86458 84.8634 7.60417 84.6027 7.5M66.6653 1.27604L62.4156 0.963542C62.2331 0.963542 62.0767 1.01562 61.9464 1.11979C61.816 1.22396 61.7378 1.38021 61.7378 1.5625L60.9556 14.5573C60.8774 15.7812 60.7992 16.6927 60.6949 17.2917C60.5906 17.8646 60.4863 18.3333 60.3038 18.6979C59.8085 19.8177 58.7135 20.3125 57.0188 20.1823C56.1324 20.1302 55.4545 19.9479 55.0113 19.6354C54.5941 19.349 54.2813 18.9844 54.0988 18.5156C53.8902 18.0208 53.7859 17.4219 53.7859 16.7188C53.7859 15.9635 53.7859 15.1562 53.8641 14.2969L54.6724 1.01562C54.6724 0.677083 54.4377 0.364583 54.0727 0.338542L49.1191 0C48.9366 0 48.7801 0.0520833 48.6498 0.15625C48.5194 0.260417 48.4412 0.416667 48.4412 0.598958L47.633 14.0625C47.5809 15.0521 47.5287 15.9115 47.5287 16.5885C47.5287 17.2917 47.5287 17.9167 47.5808 18.4375C47.633 18.9844 47.7373 19.4531 47.8676 19.8698C47.998 20.2865 48.1805 20.7031 48.4412 21.0677C49.1191 22.2656 50.1619 23.2552 51.5438 23.9844C52.8734 24.6875 54.4638 25.1302 56.2367 25.2344C56.6277 25.2604 56.9927 25.2865 57.3838 25.2865C58.4527 25.2865 59.4695 25.1823 60.4081 24.9479C61.7117 24.6354 62.8067 24.1146 63.6932 23.4115C64.1625 23.0469 64.5796 22.6302 64.9185 22.1615C65.2575 21.7188 65.5182 21.1719 65.7268 20.5729C65.9353 20 66.0918 19.2708 66.196 18.4375C66.3003 17.6302 66.4046 16.6406 66.4828 15.4948L67.2911 1.95312C67.2911 1.61458 67.0564 1.30208 66.6914 1.27604M15.0694 2.55208C14.8609 2.5 14.6262 2.57812 14.4698 2.76042C11.3933 6.14583 12.3058 10.3385 12.3319 10.5208C12.4101 10.8073 12.6708 11.0156 12.9576 11.0156C12.9576 11.0156 12.9837 11.0156 13.0098 11.0156C13.3226 11.0156 13.5834 10.7292 13.6094 10.4167C13.6876 9.53125 13.9484 9.32292 14.3916 8.95833C14.8087 8.61979 15.3302 8.20312 15.6691 7.29167C16.4252 5.36458 15.5648 3.04687 15.5387 2.96875C15.4605 2.76042 15.278 2.60417 15.0694 2.55208ZM56.7842 107.109L60.6428 106.562L60.7731 107.37L57.827 107.786L58.0095 109.141L60.6167 108.776L60.721 109.583L58.1138 109.948L58.3224 111.354L61.2946 110.937L61.4249 111.745L57.5402 112.292L56.7842 107.083V107.109ZM62.7024 110.703L63.0674 109.922C63.6671 110.208 64.2146 110.339 64.8403 110.156C65.3878 110 65.6746 109.661 65.5703 109.271C65.466 108.906 65.2314 108.75 64.2146 108.776C63.0674 108.776 62.3635 108.646 62.1289 107.708C61.8942 106.823 62.4678 106.042 63.4846 105.781C64.2146 105.599 64.8664 105.651 65.4921 105.937L65.1792 106.745C64.6317 106.51 64.1364 106.458 63.6671 106.589C63.1457 106.719 62.911 107.083 62.9892 107.396C63.0935 107.812 63.3803 107.917 64.3971 107.891C65.5443 107.891 66.196 108.125 66.4307 108.958C66.6653 109.922 66.0657 110.677 64.9967 110.964C64.2146 111.172 63.4064 111.094 62.6503 110.703M66.6653 104.948L68.5946 104.193C69.7418 103.75 70.7065 104.115 71.0975 105.104C71.5147 106.224 70.8629 107.135 69.7679 107.552L68.8032 107.917L69.4029 109.505L68.5425 109.844L66.6653 104.948ZM69.5071 106.771C70.1589 106.51 70.4197 105.99 70.2372 105.495C70.0286 104.896 69.4811 104.766 68.8293 105L67.8386 105.391L68.5164 107.161L69.5071 106.771ZM72.5315 105.469C71.8275 104.167 72.2186 102.526 73.6525 101.745C75.0604 100.964 76.6508 101.51 77.3547 102.786C78.0587 104.089 77.6676 105.729 76.2336 106.51C74.8258 107.292 73.2354 106.745 72.5315 105.469ZM76.4944 103.307C75.999 102.396 74.9561 102.005 74.0175 102.526C73.105 103.021 72.8704 104.115 73.3658 105C73.8611 105.911 74.904 106.302 75.8426 105.781C76.7551 105.286 76.9897 104.193 76.4944 103.307ZM77.094 99.8177L78.9712 98.4115C79.4926 98.0208 80.0401 97.8646 80.5094 97.9167C80.9005 97.9687 81.2655 98.2031 81.5262 98.5677C82.0476 99.2708 81.9434 100 81.4741 100.599L83.7944 101.354L82.9341 102.005L80.7962 101.302L79.8576 102.005L80.9526 103.464L80.2226 104.01L77.0679 99.7917L77.094 99.8177ZM80.4833 100.547C81.0048 100.156 81.1351 99.6354 80.8223 99.1927C80.4833 98.724 79.988 98.724 79.4405 99.1406L78.3715 99.9479L79.4405 101.354L80.5355 100.547H80.4833ZM83.0123 96.1198L81.813 97.2917L81.2133 96.6667L84.2637 93.6979L84.8634 94.3229L83.6641 95.4948L86.7405 98.6458L86.0627 99.2969L82.9862 96.1458L83.0123 96.1198ZM85.072 92.7344L85.6716 92.0312L89.6866 95.4427L89.087 96.1458L85.072 92.7344ZM86.4538 91.1979L87.0273 90.3646L91.2509 91.3281L88.8002 87.7604L89.3738 86.9271L92.5285 91.7188L92.0592 92.3958L86.4538 91.224V91.1979ZM90.2863 84.974L90.6774 84.2187L96.4392 84.5052L95.996 85.3906L94.6142 85.3125L93.5192 87.5521L94.4056 88.5937L93.9885 89.4531L90.2602 85.026L90.2863 84.974ZM93.7538 85.2083L91.4595 85.0781L92.9456 86.8229L93.7538 85.2083ZM93.7538 46.7188C93.3106 47.4219 92.711 48.2031 91.9288 48.9583C88.9306 51.901 84.7852 53.2031 79.623 52.8385C79.3101 52.8385 79.0233 53.0208 78.9451 53.3333C78.8669 53.6458 79.0494 53.9583 79.3362 54.0625C79.5708 54.1406 83.1166 55.4948 86.6102 55.9115C85.7237 56.7187 84.8112 57.526 83.8466 58.2812C83.7162 58.2812 83.5598 58.3333 83.4555 58.4115C80.4051 60.7292 75.3472 63.8281 66.6132 63.8281C66.2743 63.8281 66.0135 64.0885 65.9614 64.401C65.9353 64.7396 66.1439 65.026 66.4828 65.1042C66.9782 65.2083 69.0118 65.5729 71.4886 65.8333C70.8368 66.1458 70.1589 66.4323 69.4811 66.7448C65.1792 67.5 55.3241 68.8281 58.0877 64.7656C58.4006 64.4271 58.6874 64.0885 59.0003 63.776C59.652 63.0469 61.7899 62.0573 64.0582 61.0156C68.9336 58.75 76.3119 55.3385 82.6473 48.4635C84.8373 46.0677 86.7666 43.4115 88.4352 40.4687C87.2359 39.3229 85.9845 38.2552 84.6548 37.2135C78.3194 48.9844 68.6468 53.4635 61.9985 56.5625C58.896 57.9948 56.6799 59.0365 55.3502 60.5208C54.5159 61.4583 53.5773 62.4479 52.6127 63.4375C56.2888 67.6042 60.1996 71.5104 60.2517 71.5625C60.9035 72.2135 61.1381 73.151 60.8513 74.0104C60.7731 74.2969 60.6167 74.5573 60.4342 74.7917C60.5385 74.5833 60.6428 74.401 60.6949 74.1667C60.9035 73.2812 60.6167 72.3698 59.9388 71.7448C59.8606 71.6927 52.9255 65.4427 48.5194 60.4948C47.1898 59.0104 44.9476 57.9687 41.8711 56.5365C35.3011 53.4896 25.7588 49.0625 19.4234 37.5781C18.0938 38.6198 16.8684 39.7135 15.6952 40.8854C17.3116 43.6458 19.1366 46.1719 21.2224 48.4375C27.5578 55.3125 34.9361 58.75 39.8115 60.9896C41.6104 61.8229 43.3572 62.6302 44.2958 63.2812C44.6869 63.724 45.2605 64.3229 46.0687 65.1042C46.1208 65.1562 46.1469 65.1823 46.199 65.2344C46.4076 65.4427 46.5901 65.651 46.7987 65.8594C50.9441 70.651 39.4204 68.125 35.0143 67.0052C34.1018 66.6146 33.2153 66.224 32.3289 65.8333C34.8057 65.599 36.8393 65.2083 37.3347 65.1042C37.6475 65.0521 37.8822 64.7396 37.8561 64.401C37.83 64.0625 37.5432 63.8281 37.2304 63.8281C28.4964 63.8281 23.4385 60.7292 20.3881 58.4115C20.2838 58.3333 20.1274 58.2812 19.997 58.2812C19.0323 57.526 18.1198 56.7187 17.2334 55.9115C20.727 55.5208 24.2728 54.1667 24.5074 54.0625C24.7942 53.9583 24.9767 53.6458 24.8985 53.3333C24.8203 53.0208 24.5335 52.8125 24.2206 52.8385C19.0584 53.2031 14.913 51.901 11.9148 48.9583C11.3151 48.3854 10.8198 47.7865 10.4287 47.2135C9.35974 48.8281 8.39509 50.5208 7.61294 52.2656C8.70795 53.9062 9.95939 55.4948 11.3933 57.0052C18.172 64.2448 27.4535 69.8437 38.9772 73.724C39.1597 73.776 39.3422 73.8542 39.4726 73.8802C39.6811 74.0365 40.0201 74.349 40.4633 74.7396C40.4111 74.7396 40.3851 74.7917 40.3329 74.8177C38.169 75.9115 30.6603 78.2031 30.5821 78.2292C30.0607 78.3854 29.6435 78.776 29.4349 79.2708C29.2264 79.7656 29.2785 80.3385 29.5392 80.8073C29.6174 80.9115 30.2432 81.9792 31.5207 83.3073L37.9604 80.3906C38.2993 80.2344 38.6643 80.3906 38.8468 80.6771C39.0293 80.9896 38.925 81.3802 38.6383 81.5885L33.5803 85.1302C34.5971 85.9115 35.8486 86.6667 37.3086 87.3177L40.6719 84.0365C40.9326 83.776 41.3236 83.776 41.6104 84.0104C41.8972 84.2448 41.9494 84.6354 41.7408 84.9219L39.6029 88.1771C41.0369 88.5937 42.6272 88.9062 44.4001 88.9844C44.4262 88.9844 44.4783 88.9844 44.5044 88.9844C45.1301 88.9844 45.7037 88.6719 46.0165 88.151C46.538 87.3177 48.4412 84.7396 50.2141 84.0625C52.4302 83.2292 60.9296 82.3177 65.7528 82.8646C70.6282 83.4375 72.7661 84.7396 72.8183 85.651C72.8183 86.0937 72.8183 86.3281 73.0008 86.4323C73.3136 86.5625 73.7308 86.3802 74.0175 86.1719C74.2001 86.0417 75.0343 85.5208 75.3472 84.2448C75.999 80.7292 72.7661 80.3906 72.7661 80.3906C73.6265 80.3906 74.2261 80.5729 74.6693 80.8073C74.6693 80.7812 74.6433 80.7552 74.6172 80.7292C74.6693 80.5469 74.7215 80.3125 74.7736 80.0781C74.3826 80.0781 74.0697 79.7135 74.0697 79.7135C74.0697 79.7135 74.3826 79.5573 74.7736 79.2708C74.7215 78.8542 74.5911 78.4115 74.3304 77.9427C73.2875 76.0156 71.984 74.0104 68.5946 72.3698C66.4568 71.3542 64.4492 70.7292 61.2163 70.599C65.1792 70.4948 67.3953 71.0156 69.6897 72.0312C79.0233 68.2812 86.7145 63.2812 92.5285 57.0573C94.1449 55.3385 95.5267 53.5677 96.726 51.6927C95.8917 49.974 94.9271 48.3333 93.8581 46.7448M71.645 79.5573C71.645 79.5573 71.1497 80.4948 70.2893 80.1562C69.4289 79.7917 68.5164 78.125 68.5164 78.125C69.6897 79.1406 71.6711 79.5833 71.6711 79.5833" fill="white"/>
</svg>
